<?xml version="1.0" encoding="UTF-8"?>
<!DOCTYPE svg PUBLIC "-//W3C//DTD SVG 1.1//EN" "http://www.w3.org/Graphics/SVG/1.1/DTD/svg11.dtd">
<svg version="1.2" width="215.9mm" height="279.4mm" viewBox="0 0 21590 27940" preserveAspectRatio="xMidYMid" fill-rule="evenodd" stroke-width="28.222" stroke-linejoin="round" xmlns="http://www.w3.org/2000/svg" xmlns:ooo="http://xml.openoffice.org/svg/export" xmlns:xlink="http://www.w3.org/1999/xlink" xmlns:presentation="http://sun.com/xmlns/staroffice/presentation" xmlns:smil="http://www.w3.org/2001/SMIL20/" xmlns:anim="urn:oasis:names:tc:opendocument:xmlns:animation:1.0" xml:space="preserve">
 <defs class="ClipPathGroup">
  <clipPath id="presentation_clip_path" clipPathUnits="userSpaceOnUse">
   <rect x="0" y="0" width="21590" height="27940"/>
  </clipPath>
  <clipPath id="presentation_clip_path_shrink" clipPathUnits="userSpaceOnUse">
   <rect x="21" y="27" width="21547" height="27885"/>
  </clipPath>
 </defs>
 <defs class="TextShapeIndex">
  <g ooo:slide="id1" ooo:id-list="id3 id4 id5 id6 id7 id8 id9 id10 id11 id12 id13 id14 id15 id16 id17 id18 id19 id20 id21 id22 id23 id24 id25 id26 id27 id28 id29 id30 id31 id32 id33 id34 id35 id36 id37 id38 id39 id40 id41 id42 id43 id44 id45 id46 id47 id48 id49 id50 id51 id52 id53 id54 id55 id56 id57 id58 id59 id60 id61 id62 id63 id64 id65 id66 id67 id68 id69 id70"/>
 </defs>
 <defs class="EmbeddedBulletChars">
  <g id="bullet-char-template-57356" transform="scale(0.00048828125,-0.00048828125)">
   <path d="M 580,1141 L 1163,571 580,0 -4,571 580,1141 Z"/>
  </g>
  <g id="bullet-char-template-57354" transform="scale(0.00048828125,-0.00048828125)">
   <path d="M 8,1128 L 1137,1128 1137,0 8,0 8,1128 Z"/>
  </g>
  <g id="bullet-char-template-10146" transform="scale(0.00048828125,-0.00048828125)">
   <path d="M 174,0 L 602,739 174,1481 1456,739 174,0 Z M 1358,739 L 309,1346 659,739 1358,739 Z"/>
  </g>
  <g id="bullet-char-template-10132" transform="scale(0.00048828125,-0.00048828125)">
   <path d="M 2015,739 L 1276,0 717,0 1260,543 174,543 174,936 1260,936 717,1481 1274,1481 2015,739 Z"/>
  </g>
  <g id="bullet-char-template-10007" transform="scale(0.00048828125,-0.00048828125)">
   <path d="M 0,-2 C -7,14 -16,27 -25,37 L 356,567 C 262,823 215,952 215,954 215,979 228,992 255,992 264,992 276,990 289,987 310,991 331,999 354,1012 L 381,999 492,748 772,1049 836,1024 860,1049 C 881,1039 901,1025 922,1006 886,937 835,863 770,784 769,783 710,716 594,584 L 774,223 C 774,196 753,168 711,139 L 727,119 C 717,90 699,76 672,76 641,76 570,178 457,381 L 164,-76 C 142,-110 111,-127 72,-127 30,-127 9,-110 8,-76 1,-67 -2,-52 -2,-32 -2,-23 -1,-13 0,-2 Z"/>
  </g>
  <g id="bullet-char-template-10004" transform="scale(0.00048828125,-0.00048828125)">
   <path d="M 285,-33 C 182,-33 111,30 74,156 52,228 41,333 41,471 41,549 55,616 82,672 116,743 169,778 240,778 293,778 328,747 346,684 L 369,508 C 377,444 397,411 428,410 L 1163,1116 C 1174,1127 1196,1133 1229,1133 1271,1133 1292,1118 1292,1087 L 1292,965 C 1292,929 1282,901 1262,881 L 442,47 C 390,-6 338,-33 285,-33 Z"/>
  </g>
  <g id="bullet-char-template-9679" transform="scale(0.00048828125,-0.00048828125)">
   <path d="M 813,0 C 632,0 489,54 383,161 276,268 223,411 223,592 223,773 276,916 383,1023 489,1130 632,1184 813,1184 992,1184 1136,1130 1245,1023 1353,916 1407,772 1407,592 1407,412 1353,268 1245,161 1136,54 992,0 813,0 Z"/>
  </g>
  <g id="bullet-char-template-8226" transform="scale(0.00048828125,-0.00048828125)">
   <path d="M 346,457 C 273,457 209,483 155,535 101,586 74,649 74,723 74,796 101,859 155,911 209,963 273,989 346,989 419,989 480,963 531,910 582,859 608,796 608,723 608,648 583,586 532,535 482,483 420,457 346,457 Z"/>
  </g>
  <g id="bullet-char-template-8211" transform="scale(0.00048828125,-0.00048828125)">
   <path d="M -4,459 L 1135,459 1135,606 -4,606 -4,459 Z"/>
  </g>
  <g id="bullet-char-template-61548" transform="scale(0.00048828125,-0.00048828125)">
   <path d="M 173,740 C 173,903 231,1043 346,1159 462,1274 601,1332 765,1332 928,1332 1067,1274 1183,1159 1299,1043 1357,903 1357,740 1357,577 1299,437 1183,322 1067,206 928,148 765,148 601,148 462,206 346,322 231,437 173,577 173,740 Z"/>
  </g>
 </defs>
 <g>
  <g id="id2" class="Master_Slide">
   <g id="bg-id2" class="Background"/>
   <g id="bo-id2" class="BackgroundObjects"/>
  </g>
 </g>
 <g class="SlideGroup">
  <g>
   <g id="container-id1">
    <g id="id1" class="Slide" clip-path="url(#presentation_clip_path)">
     <g class="Page">
      <g class="com.sun.star.drawing.CustomShape">
       <g id="id3">
        <rect class="BoundingBox" stroke="none" fill="none" x="2264" y="1466" width="1615" height="1615"/>
        <path fill="none" stroke="rgb(52,101,164)" stroke-width="81" stroke-linejoin="round" d="M 3071,3039 L 2305,3039 2305,1507 3837,1507 3837,3039 3071,3039 Z"/>
       </g>
      </g>
      <g class="com.sun.star.drawing.CustomShape">
       <g id="id4">
        <rect class="BoundingBox" stroke="none" fill="none" x="2264" y="2999" width="1615" height="1615"/>
        <path fill="none" stroke="rgb(52,101,164)" stroke-width="81" stroke-linejoin="round" d="M 3071,4572 L 2305,4572 2305,3040 3837,3040 3837,4572 3071,4572 Z"/>
       </g>
      </g>
      <g class="com.sun.star.drawing.CustomShape">
       <g id="id5">
        <rect class="BoundingBox" stroke="none" fill="none" x="4494" y="2819" width="660" height="660"/>
        <path fill="rgb(0,0,0)" stroke="none" d="M 5152,3149 C 5152,3206 5137,3263 5108,3313 5079,3363 5038,3404 4988,3433 4938,3462 4881,3477 4824,3477 4766,3477 4709,3462 4659,3433 4609,3404 4568,3363 4539,3313 4510,3263 4495,3206 4495,3149 4495,3091 4510,3034 4539,2984 4568,2934 4609,2893 4659,2864 4709,2835 4766,2820 4824,2820 4881,2820 4938,2835 4988,2864 5038,2893 5079,2934 5108,2984 5137,3034 5152,3091 5152,3148 L 5152,3149 Z"/>
        <path fill="none" stroke="rgb(52,101,164)" d="M 5152,3149 C 5152,3206 5137,3263 5108,3313 5079,3363 5038,3404 4988,3433 4938,3462 4881,3477 4824,3477 4766,3477 4709,3462 4659,3433 4609,3404 4568,3363 4539,3313 4510,3263 4495,3206 4495,3149 4495,3091 4510,3034 4539,2984 4568,2934 4609,2893 4659,2864 4709,2835 4766,2820 4824,2820 4881,2820 4938,2835 4988,2864 5038,2893 5079,2934 5108,2984 5137,3034 5152,3091 5152,3148 L 5152,3149 Z"/>
       </g>
      </g>
      <g class="com.sun.star.drawing.CustomShape">
       <g id="id6">
        <rect class="BoundingBox" stroke="none" fill="none" x="5370" y="2819" width="660" height="660"/>
        <path fill="rgb(0,0,0)" stroke="none" d="M 6028,3149 C 6028,3206 6013,3263 5984,3313 5955,3363 5914,3404 5864,3433 5814,3462 5757,3477 5700,3477 5642,3477 5585,3462 5535,3433 5485,3404 5444,3363 5415,3313 5386,3263 5371,3206 5371,3149 5371,3091 5386,3034 5415,2984 5444,2934 5485,2893 5535,2864 5585,2835 5642,2820 5700,2820 5757,2820 5814,2835 5864,2864 5914,2893 5955,2934 5984,2984 6013,3034 6028,3091 6028,3148 L 6028,3149 Z"/>
        <path fill="none" stroke="rgb(52,101,164)" d="M 6028,3149 C 6028,3206 6013,3263 5984,3313 5955,3363 5914,3404 5864,3433 5814,3462 5757,3477 5700,3477 5642,3477 5585,3462 5535,3433 5485,3404 5444,3363 5415,3313 5386,3263 5371,3206 5371,3149 5371,3091 5386,3034 5415,2984 5444,2934 5485,2893 5535,2864 5585,2835 5642,2820 5700,2820 5757,2820 5814,2835 5864,2864 5914,2893 5955,2934 5984,2984 6013,3034 6028,3091 6028,3148 L 6028,3149 Z"/>
       </g>
      </g>
      <g class="com.sun.star.drawing.CustomShape">
       <g id="id7">
        <rect class="BoundingBox" stroke="none" fill="none" x="6244" y="2819" width="661" height="660"/>
        <path fill="rgb(0,0,0)" stroke="none" d="M 6903,3149 C 6903,3206 6888,3263 6859,3313 6830,3363 6789,3404 6739,3433 6688,3462 6632,3477 6574,3477 6516,3477 6460,3462 6410,3433 6359,3404 6318,3363 6289,3313 6260,3263 6245,3206 6245,3149 6245,3091 6260,3034 6289,2984 6318,2934 6359,2893 6410,2864 6460,2835 6516,2820 6574,2820 6632,2820 6688,2835 6739,2864 6789,2893 6830,2934 6859,2984 6888,3034 6903,3091 6903,3148 L 6903,3149 Z"/>
        <path fill="none" stroke="rgb(52,101,164)" d="M 6903,3149 C 6903,3206 6888,3263 6859,3313 6830,3363 6789,3404 6739,3433 6688,3462 6632,3477 6574,3477 6516,3477 6460,3462 6410,3433 6359,3404 6318,3363 6289,3313 6260,3263 6245,3206 6245,3149 6245,3091 6260,3034 6289,2984 6318,2934 6359,2893 6410,2864 6460,2835 6516,2820 6574,2820 6632,2820 6688,2835 6739,2864 6789,2893 6830,2934 6859,2984 6888,3034 6903,3091 6903,3148 L 6903,3149 Z"/>
       </g>
      </g>
      <g class="com.sun.star.drawing.CustomShape">
       <g id="id8">
        <rect class="BoundingBox" stroke="none" fill="none" x="2204" y="5049" width="1614" height="1615"/>
        <path fill="none" stroke="rgb(52,101,164)" stroke-width="81" stroke-linejoin="round" d="M 3776,5856 L 3776,6622 2245,6622 2245,5090 3776,5090 3776,5856 Z"/>
       </g>
      </g>
      <g class="com.sun.star.drawing.CustomShape">
       <g id="id9">
        <rect class="BoundingBox" stroke="none" fill="none" x="3736" y="5049" width="1614" height="1615"/>
        <path fill="none" stroke="rgb(52,101,164)" stroke-width="81" stroke-linejoin="round" d="M 5308,5856 L 5308,6622 3777,6622 3777,5090 5308,5090 5308,5856 Z"/>
       </g>
      </g>
      <g class="com.sun.star.drawing.CustomShape">
       <g id="id10">
        <rect class="BoundingBox" stroke="none" fill="none" x="2204" y="6800" width="1614" height="1615"/>
        <path fill="none" stroke="rgb(52,101,164)" stroke-width="81" stroke-linejoin="round" d="M 3776,7607 L 3776,8373 2245,8373 2245,6841 3776,6841 3776,7607 Z"/>
       </g>
      </g>
      <g class="com.sun.star.drawing.CustomShape">
       <g id="id11">
        <rect class="BoundingBox" stroke="none" fill="none" x="3736" y="6800" width="1614" height="1615"/>
        <path fill="none" stroke="rgb(52,101,164)" stroke-width="81" stroke-linejoin="round" d="M 5308,7607 L 5308,8373 3777,8373 3777,6841 5308,6841 5308,7607 Z"/>
       </g>
      </g>
      <g class="com.sun.star.drawing.CustomShape">
       <g id="id12">
        <rect class="BoundingBox" stroke="none" fill="none" x="5735" y="6404" width="659" height="660"/>
        <path fill="rgb(0,0,0)" stroke="none" d="M 6392,6733 C 6392,6791 6377,6848 6348,6898 6319,6948 6278,6989 6228,7018 6178,7047 6122,7062 6064,7062 6006,7062 5950,7047 5900,7018 5850,6989 5809,6948 5780,6898 5751,6848 5736,6791 5736,6733 5736,6676 5751,6619 5780,6569 5809,6519 5850,6478 5900,6449 5950,6420 6006,6405 6064,6405 6122,6405 6178,6420 6228,6449 6278,6478 6319,6519 6348,6569 6377,6619 6392,6676 6392,6733 L 6392,6733 Z"/>
        <path fill="none" stroke="rgb(52,101,164)" d="M 6392,6733 C 6392,6791 6377,6848 6348,6898 6319,6948 6278,6989 6228,7018 6178,7047 6122,7062 6064,7062 6006,7062 5950,7047 5900,7018 5850,6989 5809,6948 5780,6898 5751,6848 5736,6791 5736,6733 5736,6676 5751,6619 5780,6569 5809,6519 5850,6478 5900,6449 5950,6420 6006,6405 6064,6405 6122,6405 6178,6420 6228,6449 6278,6478 6319,6519 6348,6569 6377,6619 6392,6676 6392,6733 Z"/>
       </g>
      </g>
      <g class="com.sun.star.drawing.CustomShape">
       <g id="id13">
        <rect class="BoundingBox" stroke="none" fill="none" x="6611" y="6404" width="661" height="660"/>
        <path fill="rgb(0,0,0)" stroke="none" d="M 7270,6733 C 7270,6791 7255,6848 7226,6898 7197,6948 7156,6989 7106,7018 7055,7047 6999,7062 6941,7062 6883,7062 6827,7047 6777,7018 6726,6989 6685,6948 6656,6898 6627,6848 6612,6791 6612,6733 6612,6676 6627,6619 6656,6569 6685,6519 6726,6478 6777,6449 6827,6420 6883,6405 6941,6405 6999,6405 7055,6420 7106,6449 7156,6478 7197,6519 7226,6569 7255,6619 7270,6676 7270,6733 L 7270,6733 Z"/>
        <path fill="none" stroke="rgb(52,101,164)" d="M 7270,6733 C 7270,6791 7255,6848 7226,6898 7197,6948 7156,6989 7106,7018 7055,7047 6999,7062 6941,7062 6883,7062 6827,7047 6777,7018 6726,6989 6685,6948 6656,6898 6627,6848 6612,6791 6612,6733 6612,6676 6627,6619 6656,6569 6685,6519 6726,6478 6777,6449 6827,6420 6883,6405 6941,6405 6999,6405 7055,6420 7106,6449 7156,6478 7197,6519 7226,6569 7255,6619 7270,6676 7270,6733 Z"/>
       </g>
      </g>
      <g class="com.sun.star.drawing.CustomShape">
       <g id="id14">
        <rect class="BoundingBox" stroke="none" fill="none" x="7487" y="6404" width="660" height="660"/>
        <path fill="rgb(0,0,0)" stroke="none" d="M 8145,6733 C 8145,6791 8130,6848 8101,6898 8072,6948 8031,6989 7981,7018 7931,7047 7874,7062 7817,7062 7759,7062 7702,7047 7652,7018 7602,6989 7561,6948 7532,6898 7503,6848 7488,6791 7488,6733 7488,6676 7503,6619 7532,6569 7561,6519 7602,6478 7652,6449 7702,6420 7759,6405 7817,6405 7874,6405 7931,6420 7981,6449 8031,6478 8072,6519 8101,6569 8130,6619 8145,6676 8145,6733 L 8145,6733 Z"/>
        <path fill="none" stroke="rgb(52,101,164)" d="M 8145,6733 C 8145,6791 8130,6848 8101,6898 8072,6948 8031,6989 7981,7018 7931,7047 7874,7062 7817,7062 7759,7062 7702,7047 7652,7018 7602,6989 7561,6948 7532,6898 7503,6848 7488,6791 7488,6733 7488,6676 7503,6619 7532,6569 7561,6519 7602,6478 7652,6449 7702,6420 7759,6405 7817,6405 7874,6405 7931,6420 7981,6449 8031,6478 8072,6519 8101,6569 8130,6619 8145,6676 8145,6733 Z"/>
       </g>
      </g>
      <g class="com.sun.star.drawing.CustomShape">
       <g id="id15">
        <rect class="BoundingBox" stroke="none" fill="none" x="2205" y="9222" width="1615" height="1614"/>
        <path fill="none" stroke="rgb(52,101,164)" stroke-width="81" stroke-linejoin="round" d="M 3012,10794 L 2246,10794 2246,9263 3778,9263 3778,10794 3012,10794 Z"/>
       </g>
      </g>
      <g class="com.sun.star.drawing.CustomShape">
       <g id="id16">
        <rect class="BoundingBox" stroke="none" fill="none" x="2205" y="10755" width="1615" height="1615"/>
        <path fill="none" stroke="rgb(52,101,164)" stroke-width="81" stroke-linejoin="round" d="M 3012,12328 L 2246,12328 2246,10796 3778,10796 3778,12328 3012,12328 Z"/>
       </g>
      </g>
      <g class="com.sun.star.drawing.CustomShape">
       <g id="id17">
        <rect class="BoundingBox" stroke="none" fill="none" x="3736" y="9222" width="1614" height="1614"/>
        <path fill="none" stroke="rgb(52,101,164)" stroke-width="81" stroke-linejoin="round" d="M 4543,10794 L 3777,10794 3777,9263 5308,9263 5308,10794 4543,10794 Z"/>
       </g>
      </g>
      <g class="com.sun.star.drawing.CustomShape">
       <g id="id18">
        <rect class="BoundingBox" stroke="none" fill="none" x="2205" y="9222" width="1615" height="1614"/>
        <path fill="none" stroke="rgb(52,101,164)" stroke-width="81" stroke-linejoin="round" d="M 3012,10794 L 2246,10794 2246,9263 3778,9263 3778,10794 3012,10794 Z"/>
       </g>
      </g>
      <g class="com.sun.star.drawing.CustomShape">
       <g id="id19">
        <rect class="BoundingBox" stroke="none" fill="none" x="4652" y="11233" width="660" height="659"/>
        <path fill="rgb(0,0,0)" stroke="none" d="M 5310,11562 C 5310,11620 5295,11676 5266,11726 5237,11776 5196,11817 5146,11846 5096,11875 5039,11890 4981,11890 4924,11890 4867,11875 4817,11846 4767,11817 4726,11776 4697,11726 4668,11676 4653,11620 4653,11562 4653,11504 4668,11448 4697,11398 4726,11348 4767,11307 4817,11278 4867,11249 4924,11234 4981,11234 5039,11234 5096,11249 5146,11278 5196,11307 5237,11348 5266,11398 5295,11448 5310,11504 5310,11562 L 5310,11562 Z"/>
        <path fill="none" stroke="rgb(52,101,164)" d="M 5310,11562 C 5310,11620 5295,11676 5266,11726 5237,11776 5196,11817 5146,11846 5096,11875 5039,11890 4981,11890 4924,11890 4867,11875 4817,11846 4767,11817 4726,11776 4697,11726 4668,11676 4653,11620 4653,11562 4653,11504 4668,11448 4697,11398 4726,11348 4767,11307 4817,11278 4867,11249 4924,11234 4981,11234 5039,11234 5096,11249 5146,11278 5196,11307 5237,11348 5266,11398 5295,11448 5310,11504 5310,11562 Z"/>
       </g>
      </g>
      <g class="com.sun.star.drawing.CustomShape">
       <g id="id20">
        <rect class="BoundingBox" stroke="none" fill="none" x="5527" y="11233" width="661" height="659"/>
        <path fill="rgb(0,0,0)" stroke="none" d="M 6186,11562 C 6186,11620 6171,11676 6142,11726 6113,11776 6072,11817 6022,11846 5971,11875 5915,11890 5857,11890 5799,11890 5743,11875 5693,11846 5642,11817 5601,11776 5572,11726 5543,11676 5528,11620 5528,11562 5528,11504 5543,11448 5572,11398 5601,11348 5642,11307 5693,11278 5743,11249 5799,11234 5857,11234 5915,11234 5971,11249 6022,11278 6072,11307 6113,11348 6142,11398 6171,11448 6186,11504 6186,11562 L 6186,11562 Z"/>
        <path fill="none" stroke="rgb(52,101,164)" d="M 6186,11562 C 6186,11620 6171,11676 6142,11726 6113,11776 6072,11817 6022,11846 5971,11875 5915,11890 5857,11890 5799,11890 5743,11875 5693,11846 5642,11817 5601,11776 5572,11726 5543,11676 5528,11620 5528,11562 5528,11504 5543,11448 5572,11398 5601,11348 5642,11307 5693,11278 5743,11249 5799,11234 5857,11234 5915,11234 5971,11249 6022,11278 6072,11307 6113,11348 6142,11398 6171,11448 6186,11504 6186,11562 Z"/>
       </g>
      </g>
      <g class="com.sun.star.drawing.CustomShape">
       <g id="id21">
        <rect class="BoundingBox" stroke="none" fill="none" x="6404" y="11233" width="660" height="659"/>
        <path fill="rgb(0,0,0)" stroke="none" d="M 7062,11562 C 7062,11620 7047,11676 7018,11726 6989,11776 6948,11817 6898,11846 6848,11875 6791,11890 6733,11890 6676,11890 6619,11875 6569,11846 6519,11817 6478,11776 6449,11726 6420,11676 6405,11620 6405,11562 6405,11504 6420,11448 6449,11398 6478,11348 6519,11307 6569,11278 6619,11249 6676,11234 6733,11234 6791,11234 6848,11249 6898,11278 6948,11307 6989,11348 7018,11398 7047,11448 7062,11504 7062,11562 L 7062,11562 Z"/>
        <path fill="none" stroke="rgb(52,101,164)" d="M 7062,11562 C 7062,11620 7047,11676 7018,11726 6989,11776 6948,11817 6898,11846 6848,11875 6791,11890 6733,11890 6676,11890 6619,11875 6569,11846 6519,11817 6478,11776 6449,11726 6420,11676 6405,11620 6405,11562 6405,11504 6420,11448 6449,11398 6478,11348 6519,11307 6569,11278 6619,11249 6676,11234 6733,11234 6791,11234 6848,11249 6898,11278 6948,11307 6989,11348 7018,11398 7047,11448 7062,11504 7062,11562 Z"/>
       </g>
      </g>
      <g class="com.sun.star.drawing.CustomShape">
       <g id="id22">
        <rect class="BoundingBox" stroke="none" fill="none" x="8770" y="10974" width="1615" height="1615"/>
        <path fill="none" stroke="rgb(52,101,164)" stroke-width="81" stroke-linejoin="round" d="M 9577,11015 L 10343,11015 10343,12547 8811,12547 8811,11015 9577,11015 Z"/>
       </g>
      </g>
      <g class="com.sun.star.drawing.CustomShape">
       <g id="id23">
        <rect class="BoundingBox" stroke="none" fill="none" x="8770" y="9442" width="1615" height="1615"/>
        <path fill="none" stroke="rgb(52,101,164)" stroke-width="81" stroke-linejoin="round" d="M 9577,9483 L 10343,9483 10343,11015 8811,11015 8811,9483 9577,9483 Z"/>
       </g>
      </g>
      <g class="com.sun.star.drawing.CustomShape">
       <g id="id24">
        <rect class="BoundingBox" stroke="none" fill="none" x="7238" y="10974" width="1615" height="1615"/>
        <path fill="none" stroke="rgb(52,101,164)" stroke-width="81" stroke-linejoin="round" d="M 8045,11015 L 8811,11015 8811,12547 7279,12547 7279,11015 8045,11015 Z"/>
       </g>
      </g>
      <g class="com.sun.star.drawing.CustomShape">
       <g id="id25">
        <rect class="BoundingBox" stroke="none" fill="none" x="8770" y="10974" width="1615" height="1615"/>
        <path fill="none" stroke="rgb(52,101,164)" stroke-width="81" stroke-linejoin="round" d="M 9577,11015 L 10343,11015 10343,12547 8811,12547 8811,11015 9577,11015 Z"/>
       </g>
      </g>
      <g class="com.sun.star.drawing.CustomShape">
       <g id="id26">
        <rect class="BoundingBox" stroke="none" fill="none" x="10780" y="10794" width="661" height="661"/>
        <path fill="rgb(0,0,0)" stroke="none" d="M 11439,11124 C 11439,11182 11424,11238 11395,11289 11366,11339 11325,11380 11275,11409 11224,11438 11168,11453 11110,11453 11052,11453 10996,11438 10946,11409 10895,11380 10854,11339 10825,11289 10796,11238 10781,11182 10781,11124 10781,11066 10796,11010 10825,10960 10854,10909 10895,10868 10946,10839 10996,10810 11052,10795 11110,10795 11168,10795 11224,10810 11275,10839 11325,10868 11366,10909 11395,10960 11424,11010 11439,11066 11439,11124 L 11439,11124 Z"/>
        <path fill="none" stroke="rgb(52,101,164)" d="M 11439,11124 C 11439,11182 11424,11238 11395,11289 11366,11339 11325,11380 11275,11409 11224,11438 11168,11453 11110,11453 11052,11453 10996,11438 10946,11409 10895,11380 10854,11339 10825,11289 10796,11238 10781,11182 10781,11124 10781,11066 10796,11010 10825,10960 10854,10909 10895,10868 10946,10839 10996,10810 11052,10795 11110,10795 11168,10795 11224,10810 11275,10839 11325,10868 11366,10909 11395,10960 11424,11010 11439,11066 11439,11124 Z"/>
       </g>
      </g>
      <g class="com.sun.star.drawing.CustomShape">
       <g id="id27">
        <rect class="BoundingBox" stroke="none" fill="none" x="11658" y="10794" width="660" height="661"/>
        <path fill="rgb(0,0,0)" stroke="none" d="M 12316,11124 C 12316,11182 12301,11238 12272,11289 12243,11339 12202,11380 12152,11409 12102,11438 12045,11453 11988,11453 11930,11453 11873,11438 11823,11409 11773,11380 11732,11339 11703,11289 11674,11238 11659,11182 11659,11124 11659,11066 11674,11010 11703,10960 11732,10909 11773,10868 11823,10839 11873,10810 11930,10795 11988,10795 12045,10795 12102,10810 12152,10839 12202,10868 12243,10909 12272,10960 12301,11010 12316,11066 12316,11124 L 12316,11124 Z"/>
        <path fill="none" stroke="rgb(52,101,164)" d="M 12316,11124 C 12316,11182 12301,11238 12272,11289 12243,11339 12202,11380 12152,11409 12102,11438 12045,11453 11988,11453 11930,11453 11873,11438 11823,11409 11773,11380 11732,11339 11703,11289 11674,11238 11659,11182 11659,11124 11659,11066 11674,11010 11703,10960 11732,10909 11773,10868 11823,10839 11873,10810 11930,10795 11988,10795 12045,10795 12102,10810 12152,10839 12202,10868 12243,10909 12272,10960 12301,11010 12316,11066 12316,11124 Z"/>
       </g>
      </g>
      <g class="com.sun.star.drawing.CustomShape">
       <g id="id28">
        <rect class="BoundingBox" stroke="none" fill="none" x="12531" y="10794" width="661" height="661"/>
        <path fill="rgb(0,0,0)" stroke="none" d="M 13190,11124 C 13190,11182 13175,11238 13146,11289 13117,11339 13076,11380 13026,11409 12975,11438 12919,11453 12861,11453 12803,11453 12747,11438 12697,11409 12646,11380 12605,11339 12576,11289 12547,11238 12532,11182 12532,11124 12532,11066 12547,11010 12576,10960 12605,10909 12646,10868 12697,10839 12747,10810 12803,10795 12861,10795 12919,10795 12975,10810 13026,10839 13076,10868 13117,10909 13146,10960 13175,11010 13190,11066 13190,11124 L 13190,11124 Z"/>
        <path fill="none" stroke="rgb(52,101,164)" d="M 13190,11124 C 13190,11182 13175,11238 13146,11289 13117,11339 13076,11380 13026,11409 12975,11438 12919,11453 12861,11453 12803,11453 12747,11438 12697,11409 12646,11380 12605,11339 12576,11289 12547,11238 12532,11182 12532,11124 12532,11066 12547,11010 12576,10960 12605,10909 12646,10868 12697,10839 12747,10810 12803,10795 12861,10795 12919,10795 12975,10810 13026,10839 13076,10868 13117,10909 13146,10960 13175,11010 13190,11066 13190,11124 Z"/>
       </g>
      </g>
      <g class="com.sun.star.drawing.CustomShape">
       <g id="id29">
        <rect class="BoundingBox" stroke="none" fill="none" x="2192" y="15028" width="1615" height="1615"/>
        <path fill="none" stroke="rgb(52,101,164)" stroke-width="81" stroke-linejoin="round" d="M 2999,15069 L 3765,15069 3765,16601 2233,16601 2233,15069 2999,15069 Z"/>
       </g>
      </g>
      <g class="com.sun.star.drawing.CustomShape">
       <g id="id30">
        <rect class="BoundingBox" stroke="none" fill="none" x="2192" y="13496" width="1615" height="1615"/>
        <path fill="none" stroke="rgb(52,101,164)" stroke-width="81" stroke-linejoin="round" d="M 2999,13537 L 3765,13537 3765,15069 2233,15069 2233,13537 2999,13537 Z"/>
       </g>
      </g>
      <g class="com.sun.star.drawing.CustomShape">
       <g id="id31">
        <rect class="BoundingBox" stroke="none" fill="none" x="3724" y="15028" width="1615" height="1615"/>
        <path fill="none" stroke="rgb(52,101,164)" stroke-width="81" stroke-linejoin="round" d="M 4531,15069 L 5297,15069 5297,16601 3765,16601 3765,15069 4531,15069 Z"/>
       </g>
      </g>
      <g class="com.sun.star.drawing.CustomShape">
       <g id="id32">
        <rect class="BoundingBox" stroke="none" fill="none" x="2192" y="15028" width="1615" height="1615"/>
        <path fill="none" stroke="rgb(52,101,164)" stroke-width="81" stroke-linejoin="round" d="M 2999,15069 L 3765,15069 3765,16601 2233,16601 2233,15069 2999,15069 Z"/>
       </g>
      </g>
      <g class="com.sun.star.drawing.CustomShape">
       <g id="id33">
        <rect class="BoundingBox" stroke="none" fill="none" x="4362" y="13976" width="661" height="661"/>
        <path fill="rgb(0,0,0)" stroke="none" d="M 5021,14306 C 5021,14364 5006,14420 4977,14471 4948,14521 4907,14562 4857,14591 4806,14620 4750,14635 4692,14635 4634,14635 4578,14620 4528,14591 4477,14562 4436,14521 4407,14471 4378,14420 4363,14364 4363,14306 4363,14248 4378,14192 4407,14142 4436,14091 4477,14050 4528,14021 4578,13992 4634,13977 4692,13977 4750,13977 4806,13992 4857,14021 4907,14050 4948,14091 4977,14142 5006,14192 5021,14248 5021,14306 L 5021,14306 Z"/>
        <path fill="none" stroke="rgb(52,101,164)" d="M 5021,14306 C 5021,14364 5006,14420 4977,14471 4948,14521 4907,14562 4857,14591 4806,14620 4750,14635 4692,14635 4634,14635 4578,14620 4528,14591 4477,14562 4436,14521 4407,14471 4378,14420 4363,14364 4363,14306 4363,14248 4378,14192 4407,14142 4436,14091 4477,14050 4528,14021 4578,13992 4634,13977 4692,13977 4750,13977 4806,13992 4857,14021 4907,14050 4948,14091 4977,14142 5006,14192 5021,14248 5021,14306 Z"/>
       </g>
      </g>
      <g class="com.sun.star.drawing.CustomShape">
       <g id="id34">
        <rect class="BoundingBox" stroke="none" fill="none" x="5240" y="13976" width="660" height="661"/>
        <path fill="rgb(0,0,0)" stroke="none" d="M 5898,14306 C 5898,14364 5883,14420 5854,14471 5825,14521 5784,14562 5734,14591 5684,14620 5627,14635 5570,14635 5512,14635 5455,14620 5405,14591 5355,14562 5314,14521 5285,14471 5256,14420 5241,14364 5241,14306 5241,14248 5256,14192 5285,14142 5314,14091 5355,14050 5405,14021 5455,13992 5512,13977 5570,13977 5627,13977 5684,13992 5734,14021 5784,14050 5825,14091 5854,14142 5883,14192 5898,14248 5898,14306 L 5898,14306 Z"/>
        <path fill="none" stroke="rgb(52,101,164)" d="M 5898,14306 C 5898,14364 5883,14420 5854,14471 5825,14521 5784,14562 5734,14591 5684,14620 5627,14635 5570,14635 5512,14635 5455,14620 5405,14591 5355,14562 5314,14521 5285,14471 5256,14420 5241,14364 5241,14306 5241,14248 5256,14192 5285,14142 5314,14091 5355,14050 5405,14021 5455,13992 5512,13977 5570,13977 5627,13977 5684,13992 5734,14021 5784,14050 5825,14091 5854,14142 5883,14192 5898,14248 5898,14306 Z"/>
       </g>
      </g>
      <g class="com.sun.star.drawing.CustomShape">
       <g id="id35">
        <rect class="BoundingBox" stroke="none" fill="none" x="6115" y="13976" width="660" height="661"/>
        <path fill="rgb(0,0,0)" stroke="none" d="M 6773,14306 C 6773,14364 6758,14420 6729,14471 6700,14521 6659,14562 6609,14591 6559,14620 6502,14635 6445,14635 6387,14635 6330,14620 6280,14591 6230,14562 6189,14521 6160,14471 6131,14420 6116,14364 6116,14306 6116,14248 6131,14192 6160,14142 6189,14091 6230,14050 6280,14021 6330,13992 6387,13977 6445,13977 6502,13977 6559,13992 6609,14021 6659,14050 6700,14091 6729,14142 6758,14192 6773,14248 6773,14306 L 6773,14306 Z"/>
        <path fill="none" stroke="rgb(52,101,164)" d="M 6773,14306 C 6773,14364 6758,14420 6729,14471 6700,14521 6659,14562 6609,14591 6559,14620 6502,14635 6445,14635 6387,14635 6330,14620 6280,14591 6230,14562 6189,14521 6160,14471 6131,14420 6116,14364 6116,14306 6116,14248 6131,14192 6160,14142 6189,14091 6230,14050 6280,14021 6330,13992 6387,13977 6445,13977 6502,13977 6559,13992 6609,14021 6659,14050 6700,14091 6729,14142 6758,14192 6773,14248 6773,14306 Z"/>
       </g>
      </g>
      <g class="com.sun.star.drawing.CustomShape">
       <g id="id36">
        <rect class="BoundingBox" stroke="none" fill="none" x="8757" y="13276" width="1615" height="1614"/>
        <path fill="none" stroke="rgb(52,101,164)" stroke-width="81" stroke-linejoin="round" d="M 9564,14848 L 8798,14848 8798,13317 10330,13317 10330,14848 9564,14848 Z"/>
       </g>
      </g>
      <g class="com.sun.star.drawing.CustomShape">
       <g id="id37">
        <rect class="BoundingBox" stroke="none" fill="none" x="8757" y="14809" width="1615" height="1615"/>
        <path fill="none" stroke="rgb(52,101,164)" stroke-width="81" stroke-linejoin="round" d="M 9564,16382 L 8798,16382 8798,14850 10330,14850 10330,16382 9564,16382 Z"/>
       </g>
      </g>
      <g class="com.sun.star.drawing.CustomShape">
       <g id="id38">
        <rect class="BoundingBox" stroke="none" fill="none" x="7226" y="13276" width="1614" height="1614"/>
        <path fill="none" stroke="rgb(52,101,164)" stroke-width="81" stroke-linejoin="round" d="M 8033,14848 L 7267,14848 7267,13317 8798,13317 8798,14848 8033,14848 Z"/>
       </g>
      </g>
      <g class="com.sun.star.drawing.CustomShape">
       <g id="id39">
        <rect class="BoundingBox" stroke="none" fill="none" x="8757" y="13276" width="1615" height="1614"/>
        <path fill="none" stroke="rgb(52,101,164)" stroke-width="81" stroke-linejoin="round" d="M 9564,14848 L 8798,14848 8798,13317 10330,13317 10330,14848 9564,14848 Z"/>
       </g>
      </g>
      <g class="com.sun.star.drawing.CustomShape">
       <g id="id40">
        <rect class="BoundingBox" stroke="none" fill="none" x="10769" y="14849" width="660" height="661"/>
        <path fill="rgb(0,0,0)" stroke="none" d="M 11427,15179 C 11427,15237 11412,15293 11383,15344 11354,15394 11313,15435 11263,15464 11213,15493 11156,15508 11099,15508 11041,15508 10984,15493 10934,15464 10884,15435 10843,15394 10814,15344 10785,15293 10770,15237 10770,15179 10770,15121 10785,15065 10814,15015 10843,14964 10884,14923 10934,14894 10984,14865 11041,14850 11099,14850 11156,14850 11213,14865 11263,14894 11313,14923 11354,14964 11383,15015 11412,15065 11427,15121 11427,15179 L 11427,15179 Z"/>
        <path fill="none" stroke="rgb(52,101,164)" d="M 11427,15179 C 11427,15237 11412,15293 11383,15344 11354,15394 11313,15435 11263,15464 11213,15493 11156,15508 11099,15508 11041,15508 10984,15493 10934,15464 10884,15435 10843,15394 10814,15344 10785,15293 10770,15237 10770,15179 10770,15121 10785,15065 10814,15015 10843,14964 10884,14923 10934,14894 10984,14865 11041,14850 11099,14850 11156,14850 11213,14865 11263,14894 11313,14923 11354,14964 11383,15015 11412,15065 11427,15121 11427,15179 Z"/>
       </g>
      </g>
      <g class="com.sun.star.drawing.CustomShape">
       <g id="id41">
        <rect class="BoundingBox" stroke="none" fill="none" x="11645" y="14849" width="660" height="661"/>
        <path fill="rgb(0,0,0)" stroke="none" d="M 12303,15179 C 12303,15237 12288,15293 12259,15344 12230,15394 12189,15435 12139,15464 12089,15493 12032,15508 11975,15508 11917,15508 11860,15493 11810,15464 11760,15435 11719,15394 11690,15344 11661,15293 11646,15237 11646,15179 11646,15121 11661,15065 11690,15015 11719,14964 11760,14923 11810,14894 11860,14865 11917,14850 11975,14850 12032,14850 12089,14865 12139,14894 12189,14923 12230,14964 12259,15015 12288,15065 12303,15121 12303,15179 L 12303,15179 Z"/>
        <path fill="none" stroke="rgb(52,101,164)" d="M 12303,15179 C 12303,15237 12288,15293 12259,15344 12230,15394 12189,15435 12139,15464 12089,15493 12032,15508 11975,15508 11917,15508 11860,15493 11810,15464 11760,15435 11719,15394 11690,15344 11661,15293 11646,15237 11646,15179 11646,15121 11661,15065 11690,15015 11719,14964 11760,14923 11810,14894 11860,14865 11917,14850 11975,14850 12032,14850 12089,14865 12139,14894 12189,14923 12230,14964 12259,15015 12288,15065 12303,15121 12303,15179 Z"/>
       </g>
      </g>
      <g class="com.sun.star.drawing.CustomShape">
       <g id="id42">
        <rect class="BoundingBox" stroke="none" fill="none" x="12520" y="14849" width="660" height="661"/>
        <path fill="rgb(0,0,0)" stroke="none" d="M 13178,15179 C 13178,15237 13163,15293 13134,15344 13105,15394 13064,15435 13014,15464 12964,15493 12907,15508 12850,15508 12792,15508 12735,15493 12685,15464 12635,15435 12594,15394 12565,15344 12536,15293 12521,15237 12521,15179 12521,15121 12536,15065 12565,15015 12594,14964 12635,14923 12685,14894 12735,14865 12792,14850 12850,14850 12907,14850 12964,14865 13014,14894 13064,14923 13105,14964 13134,15015 13163,15065 13178,15121 13178,15179 L 13178,15179 Z"/>
        <path fill="none" stroke="rgb(52,101,164)" d="M 13178,15179 C 13178,15237 13163,15293 13134,15344 13105,15394 13064,15435 13014,15464 12964,15493 12907,15508 12850,15508 12792,15508 12735,15493 12685,15464 12635,15435 12594,15394 12565,15344 12536,15293 12521,15237 12521,15179 12521,15121 12536,15065 12565,15015 12594,14964 12635,14923 12685,14894 12735,14865 12792,14850 12850,14850 12907,14850 12964,14865 13014,14894 13064,14923 13105,14964 13134,15015 13163,15065 13178,15121 13178,15179 Z"/>
       </g>
      </g>
      <g class="com.sun.star.drawing.CustomShape">
       <g id="id43">
        <rect class="BoundingBox" stroke="none" fill="none" x="2193" y="17348" width="1615" height="1615"/>
        <path fill="none" stroke="rgb(52,101,164)" stroke-width="81" stroke-linejoin="round" d="M 3000,18921 L 2234,18921 2234,17389 3766,17389 3766,18921 3000,18921 Z"/>
       </g>
      </g>
      <g class="com.sun.star.drawing.CustomShape">
       <g id="id44">
        <rect class="BoundingBox" stroke="none" fill="none" x="2193" y="18881" width="1615" height="1615"/>
        <path fill="none" stroke="rgb(52,101,164)" stroke-width="81" stroke-linejoin="round" d="M 3000,20454 L 2234,20454 2234,18922 3766,18922 3766,20454 3000,20454 Z"/>
       </g>
      </g>
      <g class="com.sun.star.drawing.CustomShape">
       <g id="id45">
        <rect class="BoundingBox" stroke="none" fill="none" x="3725" y="17348" width="1615" height="1615"/>
        <path fill="none" stroke="rgb(52,101,164)" stroke-width="81" stroke-linejoin="round" d="M 4532,18921 L 3766,18921 3766,17389 5298,17389 5298,18921 4532,18921 Z"/>
       </g>
      </g>
      <g class="com.sun.star.drawing.CustomShape">
       <g id="id46">
        <rect class="BoundingBox" stroke="none" fill="none" x="2193" y="17348" width="1615" height="1615"/>
        <path fill="none" stroke="rgb(52,101,164)" stroke-width="81" stroke-linejoin="round" d="M 3000,18921 L 2234,18921 2234,17389 3766,17389 3766,18921 3000,18921 Z"/>
       </g>
      </g>
      <g class="com.sun.star.drawing.CustomShape">
       <g id="id47">
        <rect class="BoundingBox" stroke="none" fill="none" x="8132" y="17417" width="1615" height="1615"/>
        <path fill="none" stroke="rgb(52,101,164)" stroke-width="81" stroke-linejoin="round" d="M 8939,18990 L 8173,18990 8173,17458 9705,17458 9705,18990 8939,18990 Z"/>
       </g>
      </g>
      <g class="com.sun.star.drawing.CustomShape">
       <g id="id48">
        <rect class="BoundingBox" stroke="none" fill="none" x="8132" y="18948" width="1615" height="1616"/>
        <path fill="none" stroke="rgb(52,101,164)" stroke-width="81" stroke-linejoin="round" d="M 8939,20522 L 8173,20522 8173,18989 9705,18989 9705,20522 8939,20522 Z"/>
       </g>
      </g>
      <g class="com.sun.star.drawing.CustomShape">
       <g id="id49">
        <rect class="BoundingBox" stroke="none" fill="none" x="6600" y="17417" width="1615" height="1615"/>
        <path fill="none" stroke="rgb(52,101,164)" stroke-width="81" stroke-linejoin="round" d="M 7407,18990 L 6641,18990 6641,17458 8173,17458 8173,18990 7407,18990 Z"/>
       </g>
      </g>
      <g class="com.sun.star.drawing.CustomShape">
       <g id="id50">
        <rect class="BoundingBox" stroke="none" fill="none" x="8132" y="17417" width="1615" height="1615"/>
        <path fill="none" stroke="rgb(52,101,164)" stroke-width="81" stroke-linejoin="round" d="M 8939,18990 L 8173,18990 8173,17458 9705,17458 9705,18990 8939,18990 Z"/>
       </g>
      </g>
      <g class="com.sun.star.drawing.CustomShape">
       <g id="id51">
        <rect class="BoundingBox" stroke="none" fill="none" x="4717" y="19519" width="661" height="661"/>
        <path fill="rgb(0,0,0)" stroke="none" d="M 5376,19849 C 5376,19907 5361,19963 5332,20014 5303,20064 5262,20105 5212,20134 5161,20163 5105,20178 5047,20178 4989,20178 4933,20163 4883,20134 4832,20105 4791,20064 4762,20014 4733,19963 4718,19907 4718,19849 4718,19791 4733,19735 4762,19685 4791,19634 4832,19593 4883,19564 4933,19535 4989,19520 5047,19520 5105,19520 5161,19535 5212,19564 5262,19593 5303,19634 5332,19685 5361,19735 5376,19791 5376,19849 L 5376,19849 Z"/>
        <path fill="none" stroke="rgb(52,101,164)" d="M 5376,19849 C 5376,19907 5361,19963 5332,20014 5303,20064 5262,20105 5212,20134 5161,20163 5105,20178 5047,20178 4989,20178 4933,20163 4883,20134 4832,20105 4791,20064 4762,20014 4733,19963 4718,19907 4718,19849 4718,19791 4733,19735 4762,19685 4791,19634 4832,19593 4883,19564 4933,19535 4989,19520 5047,19520 5105,19520 5161,19535 5212,19564 5262,19593 5303,19634 5332,19685 5361,19735 5376,19791 5376,19849 Z"/>
       </g>
      </g>
      <g class="com.sun.star.drawing.CustomShape">
       <g id="id52">
        <rect class="BoundingBox" stroke="none" fill="none" x="5595" y="19519" width="660" height="661"/>
        <path fill="rgb(0,0,0)" stroke="none" d="M 6253,19849 C 6253,19907 6238,19963 6209,20014 6180,20064 6139,20105 6089,20134 6039,20163 5982,20178 5925,20178 5867,20178 5810,20163 5760,20134 5710,20105 5669,20064 5640,20014 5611,19963 5596,19907 5596,19849 5596,19791 5611,19735 5640,19685 5669,19634 5710,19593 5760,19564 5810,19535 5867,19520 5925,19520 5982,19520 6039,19535 6089,19564 6139,19593 6180,19634 6209,19685 6238,19735 6253,19791 6253,19849 L 6253,19849 Z"/>
        <path fill="none" stroke="rgb(52,101,164)" d="M 6253,19849 C 6253,19907 6238,19963 6209,20014 6180,20064 6139,20105 6089,20134 6039,20163 5982,20178 5925,20178 5867,20178 5810,20163 5760,20134 5710,20105 5669,20064 5640,20014 5611,19963 5596,19907 5596,19849 5596,19791 5611,19735 5640,19685 5669,19634 5710,19593 5760,19564 5810,19535 5867,19520 5925,19520 5982,19520 6039,19535 6089,19564 6139,19593 6180,19634 6209,19685 6238,19735 6253,19791 6253,19849 Z"/>
       </g>
      </g>
      <g class="com.sun.star.drawing.CustomShape">
       <g id="id53">
        <rect class="BoundingBox" stroke="none" fill="none" x="6469" y="19519" width="660" height="661"/>
        <path fill="rgb(0,0,0)" stroke="none" d="M 7127,19849 C 7127,19907 7112,19963 7083,20014 7054,20064 7013,20105 6963,20134 6913,20163 6856,20178 6799,20178 6741,20178 6684,20163 6634,20134 6584,20105 6543,20064 6514,20014 6485,19963 6470,19907 6470,19849 6470,19791 6485,19735 6514,19685 6543,19634 6584,19593 6634,19564 6684,19535 6741,19520 6799,19520 6856,19520 6913,19535 6963,19564 7013,19593 7054,19634 7083,19685 7112,19735 7127,19791 7127,19849 L 7127,19849 Z"/>
        <path fill="none" stroke="rgb(52,101,164)" d="M 7127,19849 C 7127,19907 7112,19963 7083,20014 7054,20064 7013,20105 6963,20134 6913,20163 6856,20178 6799,20178 6741,20178 6684,20163 6634,20134 6584,20105 6543,20064 6514,20014 6485,19963 6470,19907 6470,19849 6470,19791 6485,19735 6514,19685 6543,19634 6584,19593 6634,19564 6684,19535 6741,19520 6799,19520 6856,19520 6913,19535 6963,19564 7013,19593 7054,19634 7083,19685 7112,19735 7127,19791 7127,19849 Z"/>
       </g>
      </g>
      <g class="com.sun.star.drawing.CustomShape">
       <g id="id54">
        <rect class="BoundingBox" stroke="none" fill="none" x="10303" y="18762" width="660" height="660"/>
        <path fill="rgb(0,0,0)" stroke="none" d="M 10961,19092 C 10961,19149 10946,19206 10917,19256 10888,19306 10847,19347 10797,19376 10747,19405 10690,19420 10633,19420 10575,19420 10518,19405 10468,19376 10418,19347 10377,19306 10348,19256 10319,19206 10304,19149 10304,19092 10304,19034 10319,18977 10348,18927 10377,18877 10418,18836 10468,18807 10518,18778 10575,18763 10633,18763 10690,18763 10747,18778 10797,18807 10847,18836 10888,18877 10917,18927 10946,18977 10961,19034 10961,19092 L 10961,19092 Z"/>
        <path fill="none" stroke="rgb(52,101,164)" d="M 10961,19092 C 10961,19149 10946,19206 10917,19256 10888,19306 10847,19347 10797,19376 10747,19405 10690,19420 10633,19420 10575,19420 10518,19405 10468,19376 10418,19347 10377,19306 10348,19256 10319,19206 10304,19149 10304,19092 10304,19034 10319,18977 10348,18927 10377,18877 10418,18836 10468,18807 10518,18778 10575,18763 10633,18763 10690,18763 10747,18778 10797,18807 10847,18836 10888,18877 10917,18927 10946,18977 10961,19034 10961,19092 Z"/>
       </g>
      </g>
      <g class="com.sun.star.drawing.CustomShape">
       <g id="id55">
        <rect class="BoundingBox" stroke="none" fill="none" x="11179" y="18762" width="660" height="660"/>
        <path fill="rgb(0,0,0)" stroke="none" d="M 11837,19092 C 11837,19149 11822,19206 11793,19256 11764,19306 11723,19347 11673,19376 11623,19405 11566,19420 11508,19420 11451,19420 11394,19405 11344,19376 11294,19347 11253,19306 11224,19256 11195,19206 11180,19149 11180,19092 11180,19034 11195,18977 11224,18927 11253,18877 11294,18836 11344,18807 11394,18778 11451,18763 11508,18763 11566,18763 11623,18778 11673,18807 11723,18836 11764,18877 11793,18927 11822,18977 11837,19034 11837,19092 L 11837,19092 Z"/>
        <path fill="none" stroke="rgb(52,101,164)" d="M 11837,19092 C 11837,19149 11822,19206 11793,19256 11764,19306 11723,19347 11673,19376 11623,19405 11566,19420 11508,19420 11451,19420 11394,19405 11344,19376 11294,19347 11253,19306 11224,19256 11195,19206 11180,19149 11180,19092 11180,19034 11195,18977 11224,18927 11253,18877 11294,18836 11344,18807 11394,18778 11451,18763 11508,18763 11566,18763 11623,18778 11673,18807 11723,18836 11764,18877 11793,18927 11822,18977 11837,19034 11837,19092 Z"/>
       </g>
      </g>
      <g class="com.sun.star.drawing.CustomShape">
       <g id="id56">
        <rect class="BoundingBox" stroke="none" fill="none" x="12052" y="18762" width="661" height="660"/>
        <path fill="rgb(0,0,0)" stroke="none" d="M 12711,19092 C 12711,19149 12696,19206 12667,19256 12638,19306 12597,19347 12547,19376 12496,19405 12440,19420 12382,19420 12324,19420 12268,19405 12218,19376 12167,19347 12126,19306 12097,19256 12068,19206 12053,19149 12053,19092 12053,19034 12068,18977 12097,18927 12126,18877 12167,18836 12218,18807 12268,18778 12324,18763 12382,18763 12440,18763 12496,18778 12547,18807 12597,18836 12638,18877 12667,18927 12696,18977 12711,19034 12711,19092 L 12711,19092 Z"/>
        <path fill="none" stroke="rgb(52,101,164)" d="M 12711,19092 C 12711,19149 12696,19206 12667,19256 12638,19306 12597,19347 12547,19376 12496,19405 12440,19420 12382,19420 12324,19420 12268,19405 12218,19376 12167,19347 12126,19306 12097,19256 12068,19206 12053,19149 12053,19092 12053,19034 12068,18977 12097,18927 12126,18877 12167,18836 12218,18807 12268,18778 12324,18763 12382,18763 12440,18763 12496,18778 12547,18807 12597,18836 12638,18877 12667,18927 12696,18977 12711,19034 12711,19092 Z"/>
       </g>
      </g>
      <g class="com.sun.star.drawing.CustomShape">
       <g id="id57">
        <rect class="BoundingBox" stroke="none" fill="none" x="2248" y="23034" width="1614" height="1615"/>
        <path fill="none" stroke="rgb(52,101,164)" stroke-width="81" stroke-linejoin="round" d="M 3055,23075 L 3820,23075 3820,24607 2289,24607 2289,23075 3055,23075 Z"/>
       </g>
      </g>
      <g class="com.sun.star.drawing.CustomShape">
       <g id="id58">
        <rect class="BoundingBox" stroke="none" fill="none" x="2248" y="21502" width="1614" height="1614"/>
        <path fill="none" stroke="rgb(52,101,164)" stroke-width="81" stroke-linejoin="round" d="M 3055,21543 L 3820,21543 3820,23074 2289,23074 2289,21543 3055,21543 Z"/>
       </g>
      </g>
      <g class="com.sun.star.drawing.CustomShape">
       <g id="id59">
        <rect class="BoundingBox" stroke="none" fill="none" x="3780" y="23034" width="1615" height="1615"/>
        <path fill="none" stroke="rgb(52,101,164)" stroke-width="81" stroke-linejoin="round" d="M 4587,23075 L 5353,23075 5353,24607 3821,24607 3821,23075 4587,23075 Z"/>
       </g>
      </g>
      <g class="com.sun.star.drawing.CustomShape">
       <g id="id60">
        <rect class="BoundingBox" stroke="none" fill="none" x="2248" y="23034" width="1614" height="1615"/>
        <path fill="none" stroke="rgb(52,101,164)" stroke-width="81" stroke-linejoin="round" d="M 3055,23075 L 3820,23075 3820,24607 2289,24607 2289,23075 3055,23075 Z"/>
       </g>
      </g>
      <g class="com.sun.star.drawing.CustomShape">
       <g id="id61">
        <rect class="BoundingBox" stroke="none" fill="none" x="8188" y="22966" width="1615" height="1615"/>
        <path fill="none" stroke="rgb(52,101,164)" stroke-width="81" stroke-linejoin="round" d="M 8995,23007 L 9761,23007 9761,24539 8229,24539 8229,23007 8995,23007 Z"/>
       </g>
      </g>
      <g class="com.sun.star.drawing.CustomShape">
       <g id="id62">
        <rect class="BoundingBox" stroke="none" fill="none" x="8188" y="21433" width="1615" height="1615"/>
        <path fill="none" stroke="rgb(52,101,164)" stroke-width="81" stroke-linejoin="round" d="M 8995,21474 L 9761,21474 9761,23006 8229,23006 8229,21474 8995,21474 Z"/>
       </g>
      </g>
      <g class="com.sun.star.drawing.CustomShape">
       <g id="id63">
        <rect class="BoundingBox" stroke="none" fill="none" x="6655" y="22966" width="1616" height="1615"/>
        <path fill="none" stroke="rgb(52,101,164)" stroke-width="81" stroke-linejoin="round" d="M 7463,23007 L 8229,23007 8229,24539 6696,24539 6696,23007 7463,23007 Z"/>
       </g>
      </g>
      <g class="com.sun.star.drawing.CustomShape">
       <g id="id64">
        <rect class="BoundingBox" stroke="none" fill="none" x="8188" y="22966" width="1615" height="1615"/>
        <path fill="none" stroke="rgb(52,101,164)" stroke-width="81" stroke-linejoin="round" d="M 8995,23007 L 9761,23007 9761,24539 8229,24539 8229,23007 8995,23007 Z"/>
       </g>
      </g>
      <g class="com.sun.star.drawing.CustomShape">
       <g id="id65">
        <rect class="BoundingBox" stroke="none" fill="none" x="4773" y="21881" width="661" height="660"/>
        <path fill="rgb(0,0,0)" stroke="none" d="M 5432,22210 C 5432,22268 5417,22325 5388,22375 5359,22425 5318,22466 5268,22495 5217,22524 5161,22539 5103,22539 5045,22539 4989,22524 4939,22495 4888,22466 4847,22425 4818,22375 4789,22325 4774,22268 4774,22210 4774,22153 4789,22096 4818,22046 4847,21996 4888,21955 4939,21926 4989,21897 5045,21882 5103,21882 5161,21882 5217,21897 5268,21926 5318,21955 5359,21996 5388,22046 5417,22096 5432,22153 5432,22210 L 5432,22210 Z"/>
        <path fill="none" stroke="rgb(52,101,164)" d="M 5432,22210 C 5432,22268 5417,22325 5388,22375 5359,22425 5318,22466 5268,22495 5217,22524 5161,22539 5103,22539 5045,22539 4989,22524 4939,22495 4888,22466 4847,22425 4818,22375 4789,22325 4774,22268 4774,22210 4774,22153 4789,22096 4818,22046 4847,21996 4888,21955 4939,21926 4989,21897 5045,21882 5103,21882 5161,21882 5217,21897 5268,21926 5318,21955 5359,21996 5388,22046 5417,22096 5432,22153 5432,22210 Z"/>
       </g>
      </g>
      <g class="com.sun.star.drawing.CustomShape">
       <g id="id66">
        <rect class="BoundingBox" stroke="none" fill="none" x="5650" y="21881" width="660" height="660"/>
        <path fill="rgb(0,0,0)" stroke="none" d="M 6308,22210 C 6308,22268 6293,22325 6264,22375 6235,22425 6194,22466 6144,22495 6094,22524 6037,22539 5980,22539 5922,22539 5865,22524 5815,22495 5765,22466 5724,22425 5695,22375 5666,22325 5651,22268 5651,22210 5651,22153 5666,22096 5695,22046 5724,21996 5765,21955 5815,21926 5865,21897 5922,21882 5980,21882 6037,21882 6094,21897 6144,21926 6194,21955 6235,21996 6264,22046 6293,22096 6308,22153 6308,22210 L 6308,22210 Z"/>
        <path fill="none" stroke="rgb(52,101,164)" d="M 6308,22210 C 6308,22268 6293,22325 6264,22375 6235,22425 6194,22466 6144,22495 6094,22524 6037,22539 5980,22539 5922,22539 5865,22524 5815,22495 5765,22466 5724,22425 5695,22375 5666,22325 5651,22268 5651,22210 5651,22153 5666,22096 5695,22046 5724,21996 5765,21955 5815,21926 5865,21897 5922,21882 5980,21882 6037,21882 6094,21897 6144,21926 6194,21955 6235,21996 6264,22046 6293,22096 6308,22153 6308,22210 Z"/>
       </g>
      </g>
      <g class="com.sun.star.drawing.CustomShape">
       <g id="id67">
        <rect class="BoundingBox" stroke="none" fill="none" x="6523" y="21881" width="661" height="660"/>
        <path fill="rgb(0,0,0)" stroke="none" d="M 7182,22210 C 7182,22268 7167,22325 7138,22375 7109,22425 7068,22466 7018,22495 6967,22524 6911,22539 6853,22539 6795,22539 6739,22524 6689,22495 6638,22466 6597,22425 6568,22375 6539,22325 6524,22268 6524,22210 6524,22153 6539,22096 6568,22046 6597,21996 6638,21955 6689,21926 6739,21897 6795,21882 6853,21882 6911,21882 6967,21897 7018,21926 7068,21955 7109,21996 7138,22046 7167,22096 7182,22153 7182,22210 L 7182,22210 Z"/>
        <path fill="none" stroke="rgb(52,101,164)" d="M 7182,22210 C 7182,22268 7167,22325 7138,22375 7109,22425 7068,22466 7018,22495 6967,22524 6911,22539 6853,22539 6795,22539 6739,22524 6689,22495 6638,22466 6597,22425 6568,22375 6539,22325 6524,22268 6524,22210 6524,22153 6539,22096 6568,22046 6597,21996 6638,21955 6689,21926 6739,21897 6795,21882 6853,21882 6911,21882 6967,21897 7018,21926 7068,21955 7109,21996 7138,22046 7167,22096 7182,22153 7182,22210 Z"/>
       </g>
      </g>
      <g class="com.sun.star.drawing.CustomShape">
       <g id="id68">
        <rect class="BoundingBox" stroke="none" fill="none" x="10359" y="22847" width="660" height="660"/>
        <path fill="rgb(0,0,0)" stroke="none" d="M 11017,23176 C 11017,23234 11002,23291 10973,23341 10944,23391 10903,23432 10853,23461 10803,23490 10746,23505 10688,23505 10631,23505 10574,23490 10524,23461 10474,23432 10433,23391 10404,23341 10375,23291 10360,23234 10360,23176 10360,23119 10375,23062 10404,23012 10433,22962 10474,22921 10524,22892 10574,22863 10631,22848 10688,22848 10746,22848 10803,22863 10853,22892 10903,22921 10944,22962 10973,23012 11002,23062 11017,23119 11017,23176 L 11017,23176 Z"/>
        <path fill="none" stroke="rgb(52,101,164)" d="M 11017,23176 C 11017,23234 11002,23291 10973,23341 10944,23391 10903,23432 10853,23461 10803,23490 10746,23505 10688,23505 10631,23505 10574,23490 10524,23461 10474,23432 10433,23391 10404,23341 10375,23291 10360,23234 10360,23176 10360,23119 10375,23062 10404,23012 10433,22962 10474,22921 10524,22892 10574,22863 10631,22848 10688,22848 10746,22848 10803,22863 10853,22892 10903,22921 10944,22962 10973,23012 11002,23062 11017,23119 11017,23176 Z"/>
       </g>
      </g>
      <g class="com.sun.star.drawing.CustomShape">
       <g id="id69">
        <rect class="BoundingBox" stroke="none" fill="none" x="11235" y="22847" width="660" height="660"/>
        <path fill="rgb(0,0,0)" stroke="none" d="M 11893,23176 C 11893,23234 11878,23291 11849,23341 11820,23391 11779,23432 11729,23461 11679,23490 11622,23505 11564,23505 11507,23505 11450,23490 11400,23461 11350,23432 11309,23391 11280,23341 11251,23291 11236,23234 11236,23176 11236,23119 11251,23062 11280,23012 11309,22962 11350,22921 11400,22892 11450,22863 11507,22848 11564,22848 11622,22848 11679,22863 11729,22892 11779,22921 11820,22962 11849,23012 11878,23062 11893,23119 11893,23176 L 11893,23176 Z"/>
        <path fill="none" stroke="rgb(52,101,164)" d="M 11893,23176 C 11893,23234 11878,23291 11849,23341 11820,23391 11779,23432 11729,23461 11679,23490 11622,23505 11564,23505 11507,23505 11450,23490 11400,23461 11350,23432 11309,23391 11280,23341 11251,23291 11236,23234 11236,23176 11236,23119 11251,23062 11280,23012 11309,22962 11350,22921 11400,22892 11450,22863 11507,22848 11564,22848 11622,22848 11679,22863 11729,22892 11779,22921 11820,22962 11849,23012 11878,23062 11893,23119 11893,23176 Z"/>
       </g>
      </g>
      <g class="com.sun.star.drawing.CustomShape">
       <g id="id70">
        <rect class="BoundingBox" stroke="none" fill="none" x="12108" y="22847" width="661" height="660"/>
        <path fill="rgb(0,0,0)" stroke="none" d="M 12767,23176 C 12767,23234 12752,23291 12723,23341 12694,23391 12653,23432 12603,23461 12552,23490 12496,23505 12438,23505 12380,23505 12324,23490 12274,23461 12223,23432 12182,23391 12153,23341 12124,23291 12109,23234 12109,23176 12109,23119 12124,23062 12153,23012 12182,22962 12223,22921 12274,22892 12324,22863 12380,22848 12438,22848 12496,22848 12552,22863 12603,22892 12653,22921 12694,22962 12723,23012 12752,23062 12767,23119 12767,23176 L 12767,23176 Z"/>
        <path fill="none" stroke="rgb(52,101,164)" d="M 12767,23176 C 12767,23234 12752,23291 12723,23341 12694,23391 12653,23432 12603,23461 12552,23490 12496,23505 12438,23505 12380,23505 12324,23490 12274,23461 12223,23432 12182,23391 12153,23341 12124,23291 12109,23234 12109,23176 12109,23119 12124,23062 12153,23012 12182,22962 12223,22921 12274,22892 12324,22863 12380,22848 12438,22848 12496,22848 12552,22863 12603,22892 12653,22921 12694,22962 12723,23012 12752,23062 12767,23119 12767,23176 Z"/>
       </g>
      </g>
     </g>
    </g>
   </g>
  </g>
 </g>
</svg>