<?xml version="1.0" encoding="UTF-8"?>
<!DOCTYPE svg PUBLIC "-//W3C//DTD SVG 1.1//EN" "http://www.w3.org/Graphics/SVG/1.1/DTD/svg11.dtd">
<svg version="1.2" width="215.9mm" height="279.4mm" viewBox="0 0 21590 27940" preserveAspectRatio="xMidYMid" fill-rule="evenodd" stroke-width="28.222" stroke-linejoin="round" xmlns="http://www.w3.org/2000/svg" xmlns:ooo="http://xml.openoffice.org/svg/export" xmlns:xlink="http://www.w3.org/1999/xlink" xmlns:presentation="http://sun.com/xmlns/staroffice/presentation" xmlns:smil="http://www.w3.org/2001/SMIL20/" xmlns:anim="urn:oasis:names:tc:opendocument:xmlns:animation:1.0" xml:space="preserve">
 <defs class="ClipPathGroup">
  <clipPath id="presentation_clip_path" clipPathUnits="userSpaceOnUse">
   <rect x="0" y="0" width="21590" height="27940"/>
  </clipPath>
  <clipPath id="presentation_clip_path_shrink" clipPathUnits="userSpaceOnUse">
   <rect x="21" y="27" width="21547" height="27885"/>
  </clipPath>
 </defs>
 <defs class="TextShapeIndex">
  <g ooo:slide="id1" ooo:id-list="id3 id4 id5 id6 id7 id8 id9 id10 id11 id12 id13 id14 id15 id16 id17 id18 id19 id20 id21 id22 id23 id24 id25 id26 id27 id28 id29 id30 id31 id32 id33 id34 id35 id36 id37 id38 id39 id40 id41 id42 id43 id44 id45 id46 id47 id48 id49 id50 id51 id52 id53 id54 id55 id56 id57 id58 id59 id60 id61 id62 id63 id64 id65 id66 id67 id68 id69 id70"/>
 </defs>
 <defs class="EmbeddedBulletChars">
  <g id="bullet-char-template-57356" transform="scale(0.00048828125,-0.00048828125)">
   <path d="M 580,1141 L 1163,571 580,0 -4,571 580,1141 Z"/>
  </g>
  <g id="bullet-char-template-57354" transform="scale(0.00048828125,-0.00048828125)">
   <path d="M 8,1128 L 1137,1128 1137,0 8,0 8,1128 Z"/>
  </g>
  <g id="bullet-char-template-10146" transform="scale(0.00048828125,-0.00048828125)">
   <path d="M 174,0 L 602,739 174,1481 1456,739 174,0 Z M 1358,739 L 309,1346 659,739 1358,739 Z"/>
  </g>
  <g id="bullet-char-template-10132" transform="scale(0.00048828125,-0.00048828125)">
   <path d="M 2015,739 L 1276,0 717,0 1260,543 174,543 174,936 1260,936 717,1481 1274,1481 2015,739 Z"/>
  </g>
  <g id="bullet-char-template-10007" transform="scale(0.00048828125,-0.00048828125)">
   <path d="M 0,-2 C -7,14 -16,27 -25,37 L 356,567 C 262,823 215,952 215,954 215,979 228,992 255,992 264,992 276,990 289,987 310,991 331,999 354,1012 L 381,999 492,748 772,1049 836,1024 860,1049 C 881,1039 901,1025 922,1006 886,937 835,863 770,784 769,783 710,716 594,584 L 774,223 C 774,196 753,168 711,139 L 727,119 C 717,90 699,76 672,76 641,76 570,178 457,381 L 164,-76 C 142,-110 111,-127 72,-127 30,-127 9,-110 8,-76 1,-67 -2,-52 -2,-32 -2,-23 -1,-13 0,-2 Z"/>
  </g>
  <g id="bullet-char-template-10004" transform="scale(0.00048828125,-0.00048828125)">
   <path d="M 285,-33 C 182,-33 111,30 74,156 52,228 41,333 41,471 41,549 55,616 82,672 116,743 169,778 240,778 293,778 328,747 346,684 L 369,508 C 377,444 397,411 428,410 L 1163,1116 C 1174,1127 1196,1133 1229,1133 1271,1133 1292,1118 1292,1087 L 1292,965 C 1292,929 1282,901 1262,881 L 442,47 C 390,-6 338,-33 285,-33 Z"/>
  </g>
  <g id="bullet-char-template-9679" transform="scale(0.00048828125,-0.00048828125)">
   <path d="M 813,0 C 632,0 489,54 383,161 276,268 223,411 223,592 223,773 276,916 383,1023 489,1130 632,1184 813,1184 992,1184 1136,1130 1245,1023 1353,916 1407,772 1407,592 1407,412 1353,268 1245,161 1136,54 992,0 813,0 Z"/>
  </g>
  <g id="bullet-char-template-8226" transform="scale(0.00048828125,-0.00048828125)">
   <path d="M 346,457 C 273,457 209,483 155,535 101,586 74,649 74,723 74,796 101,859 155,911 209,963 273,989 346,989 419,989 480,963 531,910 582,859 608,796 608,723 608,648 583,586 532,535 482,483 420,457 346,457 Z"/>
  </g>
  <g id="bullet-char-template-8211" transform="scale(0.00048828125,-0.00048828125)">
   <path d="M -4,459 L 1135,459 1135,606 -4,606 -4,459 Z"/>
  </g>
  <g id="bullet-char-template-61548" transform="scale(0.00048828125,-0.00048828125)">
   <path d="M 173,740 C 173,903 231,1043 346,1159 462,1274 601,1332 765,1332 928,1332 1067,1274 1183,1159 1299,1043 1357,903 1357,740 1357,577 1299,437 1183,322 1067,206 928,148 765,148 601,148 462,206 346,322 231,437 173,577 173,740 Z"/>
  </g>
 </defs>
 <g>
  <g id="id2" class="Master_Slide">
   <g id="bg-id2" class="Background"/>
   <g id="bo-id2" class="BackgroundObjects"/>
  </g>
 </g>
 <g class="SlideGroup">
  <g>
   <g id="container-id1">
    <g id="id1" class="Slide" clip-path="url(#presentation_clip_path)">
     <g class="Page">
      <g class="com.sun.star.drawing.CustomShape">
       <g id="id3">
        <rect class="BoundingBox" stroke="none" fill="none" x="2241" y="1466" width="1109" height="1109"/>
        <path fill="none" stroke="rgb(52,101,164)" stroke-width="81" stroke-linejoin="round" d="M 2795,2533 L 2282,2533 2282,1507 3308,1507 3308,2533 2795,2533 Z"/>
       </g>
      </g>
      <g class="com.sun.star.drawing.CustomShape">
       <g id="id4">
        <rect class="BoundingBox" stroke="none" fill="none" x="2241" y="2493" width="1109" height="1109"/>
        <path fill="none" stroke="rgb(52,101,164)" stroke-width="81" stroke-linejoin="round" d="M 2795,3560 L 2282,3560 2282,2534 3308,2534 3308,3560 2795,3560 Z"/>
       </g>
      </g>
      <g class="com.sun.star.drawing.CustomShape">
       <g id="id5">
        <rect class="BoundingBox" stroke="none" fill="none" x="3746" y="2385" width="443" height="443"/>
        <path fill="rgb(0,0,0)" stroke="none" d="M 4187,2606 C 4187,2645 4177,2683 4158,2716 4138,2749 4110,2777 4077,2797 4044,2816 4006,2826 3967,2826 3928,2826 3890,2816 3857,2797 3824,2777 3796,2749 3776,2716 3757,2683 3747,2645 3747,2606 3747,2567 3757,2529 3776,2496 3796,2463 3824,2435 3857,2415 3890,2396 3928,2386 3967,2386 4006,2386 4044,2396 4077,2415 4110,2435 4138,2463 4158,2496 4177,2529 4187,2567 4187,2606 L 4187,2606 Z"/>
        <path fill="none" stroke="rgb(52,101,164)" d="M 4187,2606 C 4187,2645 4177,2683 4158,2716 4138,2749 4110,2777 4077,2797 4044,2816 4006,2826 3967,2826 3928,2826 3890,2816 3857,2797 3824,2777 3796,2749 3776,2716 3757,2683 3747,2645 3747,2606 3747,2567 3757,2529 3776,2496 3796,2463 3824,2435 3857,2415 3890,2396 3928,2386 3967,2386 4006,2386 4044,2396 4077,2415 4110,2435 4138,2463 4158,2496 4177,2529 4187,2567 4187,2606 Z"/>
       </g>
      </g>
      <g class="com.sun.star.drawing.CustomShape">
       <g id="id6">
        <rect class="BoundingBox" stroke="none" fill="none" x="4333" y="2385" width="443" height="443"/>
        <path fill="rgb(0,0,0)" stroke="none" d="M 4774,2606 C 4774,2645 4764,2683 4745,2716 4725,2749 4697,2777 4664,2797 4631,2816 4593,2826 4554,2826 4515,2826 4477,2816 4444,2797 4411,2777 4383,2749 4363,2716 4344,2683 4334,2645 4334,2606 4334,2567 4344,2529 4363,2496 4383,2463 4411,2435 4444,2415 4477,2396 4515,2386 4554,2386 4593,2386 4631,2396 4664,2415 4697,2435 4725,2463 4745,2496 4764,2529 4774,2567 4774,2606 L 4774,2606 Z"/>
        <path fill="none" stroke="rgb(52,101,164)" d="M 4774,2606 C 4774,2645 4764,2683 4745,2716 4725,2749 4697,2777 4664,2797 4631,2816 4593,2826 4554,2826 4515,2826 4477,2816 4444,2797 4411,2777 4383,2749 4363,2716 4344,2683 4334,2645 4334,2606 4334,2567 4344,2529 4363,2496 4383,2463 4411,2435 4444,2415 4477,2396 4515,2386 4554,2386 4593,2386 4631,2396 4664,2415 4697,2435 4725,2463 4745,2496 4764,2529 4774,2567 4774,2606 Z"/>
       </g>
      </g>
      <g class="com.sun.star.drawing.CustomShape">
       <g id="id7">
        <rect class="BoundingBox" stroke="none" fill="none" x="4920" y="2385" width="444" height="443"/>
        <path fill="rgb(0,0,0)" stroke="none" d="M 5362,2606 C 5362,2645 5352,2683 5332,2716 5313,2749 5285,2777 5252,2797 5218,2816 5180,2826 5142,2826 5103,2826 5065,2816 5031,2797 4998,2777 4970,2749 4951,2716 4931,2683 4921,2645 4921,2606 4921,2567 4931,2529 4951,2496 4970,2463 4998,2435 5031,2415 5065,2396 5103,2386 5142,2386 5180,2386 5218,2396 5252,2415 5285,2435 5313,2463 5332,2496 5352,2529 5362,2567 5362,2606 L 5362,2606 Z"/>
        <path fill="none" stroke="rgb(52,101,164)" d="M 5362,2606 C 5362,2645 5352,2683 5332,2716 5313,2749 5285,2777 5252,2797 5218,2816 5180,2826 5142,2826 5103,2826 5065,2816 5031,2797 4998,2777 4970,2749 4951,2716 4931,2683 4921,2645 4921,2606 4921,2567 4931,2529 4951,2496 4970,2463 4998,2435 5031,2415 5065,2396 5103,2386 5142,2386 5180,2386 5218,2396 5252,2415 5285,2435 5313,2463 5332,2496 5352,2529 5362,2567 5362,2606 Z"/>
       </g>
      </g>
      <g class="com.sun.star.drawing.CustomShape">
       <g id="id8">
        <rect class="BoundingBox" stroke="none" fill="none" x="2200" y="3866" width="1108" height="1109"/>
        <path fill="none" stroke="rgb(52,101,164)" stroke-width="81" stroke-linejoin="round" d="M 3266,4420 L 3266,4933 2241,4933 2241,3907 3266,3907 3266,4420 Z"/>
       </g>
      </g>
      <g class="com.sun.star.drawing.CustomShape">
       <g id="id9">
        <rect class="BoundingBox" stroke="none" fill="none" x="3226" y="3866" width="1108" height="1109"/>
        <path fill="none" stroke="rgb(52,101,164)" stroke-width="81" stroke-linejoin="round" d="M 4292,4420 L 4292,4933 3267,4933 3267,3907 4292,3907 4292,4420 Z"/>
       </g>
      </g>
      <g class="com.sun.star.drawing.CustomShape">
       <g id="id10">
        <rect class="BoundingBox" stroke="none" fill="none" x="2200" y="5039" width="1108" height="1109"/>
        <path fill="none" stroke="rgb(52,101,164)" stroke-width="81" stroke-linejoin="round" d="M 3266,5593 L 3266,6106 2241,6106 2241,5080 3266,5080 3266,5593 Z"/>
       </g>
      </g>
      <g class="com.sun.star.drawing.CustomShape">
       <g id="id11">
        <rect class="BoundingBox" stroke="none" fill="none" x="3226" y="5039" width="1108" height="1109"/>
        <path fill="none" stroke="rgb(52,101,164)" stroke-width="81" stroke-linejoin="round" d="M 4292,5593 L 4292,6106 3267,6106 3267,5080 4292,5080 4292,5593 Z"/>
       </g>
      </g>
      <g class="com.sun.star.drawing.CustomShape">
       <g id="id12">
        <rect class="BoundingBox" stroke="none" fill="none" x="4579" y="4786" width="442" height="443"/>
        <path fill="rgb(0,0,0)" stroke="none" d="M 5019,5007 C 5019,5046 5009,5084 4990,5117 4970,5150 4943,5178 4909,5198 4876,5217 4838,5227 4800,5227 4761,5227 4723,5217 4690,5198 4656,5178 4629,5150 4609,5117 4590,5084 4580,5046 4580,5007 4580,4968 4590,4930 4609,4897 4629,4864 4656,4836 4690,4816 4723,4797 4761,4787 4800,4787 4838,4787 4876,4797 4909,4816 4943,4836 4970,4864 4990,4897 5009,4930 5019,4968 5019,5007 L 5019,5007 Z"/>
        <path fill="none" stroke="rgb(52,101,164)" d="M 5019,5007 C 5019,5046 5009,5084 4990,5117 4970,5150 4943,5178 4909,5198 4876,5217 4838,5227 4800,5227 4761,5227 4723,5217 4690,5198 4656,5178 4629,5150 4609,5117 4590,5084 4580,5046 4580,5007 4580,4968 4590,4930 4609,4897 4629,4864 4656,4836 4690,4816 4723,4797 4761,4787 4800,4787 4838,4787 4876,4797 4909,4816 4943,4836 4970,4864 4990,4897 5009,4930 5019,4968 5019,5007 Z"/>
       </g>
      </g>
      <g class="com.sun.star.drawing.CustomShape">
       <g id="id13">
        <rect class="BoundingBox" stroke="none" fill="none" x="5166" y="4786" width="444" height="443"/>
        <path fill="rgb(0,0,0)" stroke="none" d="M 5608,5007 C 5608,5046 5598,5084 5578,5117 5559,5150 5531,5178 5498,5198 5464,5217 5426,5227 5388,5227 5349,5227 5311,5217 5277,5198 5244,5178 5216,5150 5197,5117 5177,5084 5167,5046 5167,5007 5167,4968 5177,4930 5197,4897 5216,4864 5244,4836 5277,4816 5311,4797 5349,4787 5388,4787 5426,4787 5464,4797 5498,4816 5531,4836 5559,4864 5578,4897 5598,4930 5608,4968 5608,5007 L 5608,5007 Z"/>
        <path fill="none" stroke="rgb(52,101,164)" d="M 5608,5007 C 5608,5046 5598,5084 5578,5117 5559,5150 5531,5178 5498,5198 5464,5217 5426,5227 5388,5227 5349,5227 5311,5217 5277,5198 5244,5178 5216,5150 5197,5117 5177,5084 5167,5046 5167,5007 5167,4968 5177,4930 5197,4897 5216,4864 5244,4836 5277,4816 5311,4797 5349,4787 5388,4787 5426,4787 5464,4797 5498,4816 5531,4836 5559,4864 5578,4897 5598,4930 5608,4968 5608,5007 Z"/>
       </g>
      </g>
      <g class="com.sun.star.drawing.CustomShape">
       <g id="id14">
        <rect class="BoundingBox" stroke="none" fill="none" x="5751" y="4786" width="444" height="443"/>
        <path fill="rgb(0,0,0)" stroke="none" d="M 6193,5007 C 6193,5046 6183,5084 6163,5117 6144,5150 6116,5178 6083,5198 6049,5217 6011,5227 5973,5227 5934,5227 5896,5217 5862,5198 5829,5178 5801,5150 5782,5117 5762,5084 5752,5046 5752,5007 5752,4968 5762,4930 5782,4897 5801,4864 5829,4836 5862,4816 5896,4797 5934,4787 5973,4787 6011,4787 6049,4797 6083,4816 6116,4836 6144,4864 6163,4897 6183,4930 6193,4968 6193,5007 L 6193,5007 Z"/>
        <path fill="none" stroke="rgb(52,101,164)" d="M 6193,5007 C 6193,5046 6183,5084 6163,5117 6144,5150 6116,5178 6083,5198 6049,5217 6011,5227 5973,5227 5934,5227 5896,5217 5862,5198 5829,5178 5801,5150 5782,5117 5762,5084 5752,5046 5752,5007 5752,4968 5762,4930 5782,4897 5801,4864 5829,4836 5862,4816 5896,4797 5934,4787 5973,4787 6011,4787 6049,4797 6083,4816 6116,4836 6144,4864 6163,4897 6183,4930 6193,4968 6193,5007 Z"/>
       </g>
      </g>
      <g class="com.sun.star.drawing.CustomShape">
       <g id="id15">
        <rect class="BoundingBox" stroke="none" fill="none" x="2201" y="6661" width="1109" height="1108"/>
        <path fill="none" stroke="rgb(52,101,164)" stroke-width="81" stroke-linejoin="round" d="M 2755,7727 L 2242,7727 2242,6702 3268,6702 3268,7727 2755,7727 Z"/>
       </g>
      </g>
      <g class="com.sun.star.drawing.CustomShape">
       <g id="id16">
        <rect class="BoundingBox" stroke="none" fill="none" x="2201" y="7688" width="1109" height="1109"/>
        <path fill="none" stroke="rgb(52,101,164)" stroke-width="81" stroke-linejoin="round" d="M 2755,8755 L 2242,8755 2242,7729 3268,7729 3268,8755 2755,8755 Z"/>
       </g>
      </g>
      <g class="com.sun.star.drawing.CustomShape">
       <g id="id17">
        <rect class="BoundingBox" stroke="none" fill="none" x="3226" y="6661" width="1108" height="1108"/>
        <path fill="none" stroke="rgb(52,101,164)" stroke-width="81" stroke-linejoin="round" d="M 3780,7727 L 3267,7727 3267,6702 4292,6702 4292,7727 3780,7727 Z"/>
       </g>
      </g>
      <g class="com.sun.star.drawing.CustomShape">
       <g id="id18">
        <rect class="BoundingBox" stroke="none" fill="none" x="2201" y="6661" width="1109" height="1108"/>
        <path fill="none" stroke="rgb(52,101,164)" stroke-width="81" stroke-linejoin="round" d="M 2755,7727 L 2242,7727 2242,6702 3268,6702 3268,7727 2755,7727 Z"/>
       </g>
      </g>
      <g class="com.sun.star.drawing.CustomShape">
       <g id="id19">
        <rect class="BoundingBox" stroke="none" fill="none" x="3852" y="8022" width="443" height="442"/>
        <path fill="rgb(0,0,0)" stroke="none" d="M 4293,8243 C 4293,8281 4283,8319 4264,8352 4244,8386 4216,8413 4183,8433 4150,8452 4112,8462 4073,8462 4034,8462 3996,8452 3963,8433 3930,8413 3902,8386 3882,8352 3863,8319 3853,8281 3853,8243 3853,8204 3863,8166 3882,8133 3902,8099 3930,8072 3963,8052 3996,8033 4034,8023 4073,8023 4112,8023 4150,8033 4183,8052 4216,8072 4244,8099 4264,8133 4283,8166 4293,8204 4293,8243 L 4293,8243 Z"/>
        <path fill="none" stroke="rgb(52,101,164)" d="M 4293,8243 C 4293,8281 4283,8319 4264,8352 4244,8386 4216,8413 4183,8433 4150,8452 4112,8462 4073,8462 4034,8462 3996,8452 3963,8433 3930,8413 3902,8386 3882,8352 3863,8319 3853,8281 3853,8243 3853,8204 3863,8166 3882,8133 3902,8099 3930,8072 3963,8052 3996,8033 4034,8023 4073,8023 4112,8023 4150,8033 4183,8052 4216,8072 4244,8099 4264,8133 4283,8166 4293,8204 4293,8243 Z"/>
       </g>
      </g>
      <g class="com.sun.star.drawing.CustomShape">
       <g id="id20">
        <rect class="BoundingBox" stroke="none" fill="none" x="4438" y="8022" width="445" height="442"/>
        <path fill="rgb(0,0,0)" stroke="none" d="M 4881,8243 C 4881,8281 4871,8319 4851,8352 4832,8386 4804,8413 4771,8433 4737,8452 4699,8462 4660,8462 4621,8462 4583,8452 4550,8433 4516,8413 4488,8386 4469,8352 4449,8319 4439,8281 4439,8243 4439,8204 4449,8166 4469,8133 4488,8099 4516,8072 4550,8052 4583,8033 4621,8023 4660,8023 4699,8023 4737,8033 4771,8052 4804,8072 4832,8099 4851,8133 4871,8166 4881,8204 4881,8243 L 4881,8243 Z"/>
        <path fill="none" stroke="rgb(52,101,164)" d="M 4881,8243 C 4881,8281 4871,8319 4851,8352 4832,8386 4804,8413 4771,8433 4737,8452 4699,8462 4660,8462 4621,8462 4583,8452 4550,8433 4516,8413 4488,8386 4469,8352 4449,8319 4439,8281 4439,8243 4439,8204 4449,8166 4469,8133 4488,8099 4516,8072 4550,8052 4583,8033 4621,8023 4660,8023 4699,8023 4737,8033 4771,8052 4804,8072 4832,8099 4851,8133 4871,8166 4881,8204 4881,8243 Z"/>
       </g>
      </g>
      <g class="com.sun.star.drawing.CustomShape">
       <g id="id21">
        <rect class="BoundingBox" stroke="none" fill="none" x="5026" y="8022" width="444" height="442"/>
        <path fill="rgb(0,0,0)" stroke="none" d="M 5468,8243 C 5468,8281 5458,8319 5438,8352 5419,8386 5391,8413 5358,8433 5324,8452 5286,8462 5248,8462 5209,8462 5171,8452 5137,8433 5104,8413 5076,8386 5057,8352 5037,8319 5027,8281 5027,8243 5027,8204 5037,8166 5057,8133 5076,8099 5104,8072 5137,8052 5171,8033 5209,8023 5248,8023 5286,8023 5324,8033 5358,8052 5391,8072 5419,8099 5438,8133 5458,8166 5468,8204 5468,8243 L 5468,8243 Z"/>
        <path fill="none" stroke="rgb(52,101,164)" d="M 5468,8243 C 5468,8281 5458,8319 5438,8352 5419,8386 5391,8413 5358,8433 5324,8452 5286,8462 5248,8462 5209,8462 5171,8452 5137,8433 5104,8413 5076,8386 5057,8352 5037,8319 5027,8281 5027,8243 5027,8204 5037,8166 5057,8133 5076,8099 5104,8072 5137,8052 5171,8033 5209,8023 5248,8023 5286,8023 5324,8033 5358,8052 5391,8072 5419,8099 5438,8133 5458,8166 5468,8204 5468,8243 Z"/>
       </g>
      </g>
      <g class="com.sun.star.drawing.CustomShape">
       <g id="id22">
        <rect class="BoundingBox" stroke="none" fill="none" x="6598" y="7834" width="1109" height="1110"/>
        <path fill="none" stroke="rgb(52,101,164)" stroke-width="81" stroke-linejoin="round" d="M 7152,7875 L 7665,7875 7665,8902 6639,8902 6639,7875 7152,7875 Z"/>
       </g>
      </g>
      <g class="com.sun.star.drawing.CustomShape">
       <g id="id23">
        <rect class="BoundingBox" stroke="none" fill="none" x="6598" y="6808" width="1109" height="1109"/>
        <path fill="none" stroke="rgb(52,101,164)" stroke-width="81" stroke-linejoin="round" d="M 7152,6849 L 7665,6849 7665,7875 6639,7875 6639,6849 7152,6849 Z"/>
       </g>
      </g>
      <g class="com.sun.star.drawing.CustomShape">
       <g id="id24">
        <rect class="BoundingBox" stroke="none" fill="none" x="5572" y="7834" width="1109" height="1110"/>
        <path fill="none" stroke="rgb(52,101,164)" stroke-width="81" stroke-linejoin="round" d="M 6126,7875 L 6639,7875 6639,8902 5613,8902 5613,7875 6126,7875 Z"/>
       </g>
      </g>
      <g class="com.sun.star.drawing.CustomShape">
       <g id="id25">
        <rect class="BoundingBox" stroke="none" fill="none" x="6598" y="7834" width="1109" height="1110"/>
        <path fill="none" stroke="rgb(52,101,164)" stroke-width="81" stroke-linejoin="round" d="M 7152,7875 L 7665,7875 7665,8902 6639,8902 6639,7875 7152,7875 Z"/>
       </g>
      </g>
      <g class="com.sun.star.drawing.CustomShape">
       <g id="id26">
        <rect class="BoundingBox" stroke="none" fill="none" x="7958" y="7728" width="444" height="444"/>
        <path fill="rgb(0,0,0)" stroke="none" d="M 8400,7950 C 8400,7988 8390,8026 8370,8060 8351,8093 8323,8121 8290,8140 8256,8160 8218,8170 8180,8170 8141,8170 8103,8160 8069,8140 8036,8121 8008,8093 7989,8060 7969,8026 7959,7988 7959,7950 7959,7911 7969,7873 7989,7839 8008,7806 8036,7778 8069,7759 8103,7739 8141,7729 8180,7729 8218,7729 8256,7739 8290,7759 8323,7778 8351,7806 8370,7839 8390,7873 8400,7911 8400,7950 L 8400,7950 Z"/>
        <path fill="none" stroke="rgb(52,101,164)" d="M 8400,7950 C 8400,7988 8390,8026 8370,8060 8351,8093 8323,8121 8290,8140 8256,8160 8218,8170 8180,8170 8141,8170 8103,8160 8069,8140 8036,8121 8008,8093 7989,8060 7969,8026 7959,7988 7959,7950 7959,7911 7969,7873 7989,7839 8008,7806 8036,7778 8069,7759 8103,7739 8141,7729 8180,7729 8218,7729 8256,7739 8290,7759 8323,7778 8351,7806 8370,7839 8390,7873 8400,7911 8400,7950 Z"/>
       </g>
      </g>
      <g class="com.sun.star.drawing.CustomShape">
       <g id="id27">
        <rect class="BoundingBox" stroke="none" fill="none" x="8545" y="7728" width="443" height="444"/>
        <path fill="rgb(0,0,0)" stroke="none" d="M 8986,7950 C 8986,7988 8976,8026 8957,8060 8937,8093 8909,8121 8876,8140 8843,8160 8805,8170 8766,8170 8727,8170 8689,8160 8656,8140 8623,8121 8595,8093 8575,8060 8556,8026 8546,7988 8546,7950 8546,7911 8556,7873 8575,7839 8595,7806 8623,7778 8656,7759 8689,7739 8727,7729 8766,7729 8805,7729 8843,7739 8876,7759 8909,7778 8937,7806 8957,7839 8976,7873 8986,7911 8986,7950 L 8986,7950 Z"/>
        <path fill="none" stroke="rgb(52,101,164)" d="M 8986,7950 C 8986,7988 8976,8026 8957,8060 8937,8093 8909,8121 8876,8140 8843,8160 8805,8170 8766,8170 8727,8170 8689,8160 8656,8140 8623,8121 8595,8093 8575,8060 8556,8026 8546,7988 8546,7950 8546,7911 8556,7873 8575,7839 8595,7806 8623,7778 8656,7759 8689,7739 8727,7729 8766,7729 8805,7729 8843,7739 8876,7759 8909,7778 8937,7806 8957,7839 8976,7873 8986,7911 8986,7950 Z"/>
       </g>
      </g>
      <g class="com.sun.star.drawing.CustomShape">
       <g id="id28">
        <rect class="BoundingBox" stroke="none" fill="none" x="9131" y="7728" width="444" height="444"/>
        <path fill="rgb(0,0,0)" stroke="none" d="M 9573,7950 C 9573,7988 9563,8026 9543,8060 9524,8093 9496,8121 9463,8140 9429,8160 9391,8170 9353,8170 9314,8170 9276,8160 9242,8140 9209,8121 9181,8093 9162,8060 9142,8026 9132,7988 9132,7950 9132,7911 9142,7873 9162,7839 9181,7806 9209,7778 9242,7759 9276,7739 9314,7729 9353,7729 9391,7729 9429,7739 9463,7759 9496,7778 9524,7806 9543,7839 9563,7873 9573,7911 9573,7950 L 9573,7950 Z"/>
        <path fill="none" stroke="rgb(52,101,164)" d="M 9573,7950 C 9573,7988 9563,8026 9543,8060 9524,8093 9496,8121 9463,8140 9429,8160 9391,8170 9353,8170 9314,8170 9276,8160 9242,8140 9209,8121 9181,8093 9162,8060 9142,8026 9132,7988 9132,7950 9132,7911 9142,7873 9162,7839 9181,7806 9209,7778 9242,7759 9276,7739 9314,7729 9353,7729 9391,7729 9429,7739 9463,7759 9496,7778 9524,7806 9543,7839 9563,7873 9573,7911 9573,7950 Z"/>
       </g>
      </g>
      <g class="com.sun.star.drawing.CustomShape">
       <g id="id29">
        <rect class="BoundingBox" stroke="none" fill="none" x="2192" y="10550" width="1109" height="1109"/>
        <path fill="none" stroke="rgb(52,101,164)" stroke-width="81" stroke-linejoin="round" d="M 2746,10591 L 3259,10591 3259,11617 2233,11617 2233,10591 2746,10591 Z"/>
       </g>
      </g>
      <g class="com.sun.star.drawing.CustomShape">
       <g id="id30">
        <rect class="BoundingBox" stroke="none" fill="none" x="2192" y="9524" width="1109" height="1109"/>
        <path fill="none" stroke="rgb(52,101,164)" stroke-width="81" stroke-linejoin="round" d="M 2746,9565 L 3259,9565 3259,10591 2233,10591 2233,9565 2746,9565 Z"/>
       </g>
      </g>
      <g class="com.sun.star.drawing.CustomShape">
       <g id="id31">
        <rect class="BoundingBox" stroke="none" fill="none" x="3218" y="10550" width="1109" height="1109"/>
        <path fill="none" stroke="rgb(52,101,164)" stroke-width="81" stroke-linejoin="round" d="M 3772,10591 L 4285,10591 4285,11617 3259,11617 3259,10591 3772,10591 Z"/>
       </g>
      </g>
      <g class="com.sun.star.drawing.CustomShape">
       <g id="id32">
        <rect class="BoundingBox" stroke="none" fill="none" x="2192" y="10550" width="1109" height="1109"/>
        <path fill="none" stroke="rgb(52,101,164)" stroke-width="81" stroke-linejoin="round" d="M 2746,10591 L 3259,10591 3259,11617 2233,11617 2233,10591 2746,10591 Z"/>
       </g>
      </g>
      <g class="com.sun.star.drawing.CustomShape">
       <g id="id33">
        <rect class="BoundingBox" stroke="none" fill="none" x="3659" y="9859" width="444" height="444"/>
        <path fill="rgb(0,0,0)" stroke="none" d="M 4101,10081 C 4101,10119 4091,10157 4071,10191 4052,10224 4024,10252 3991,10271 3957,10291 3919,10301 3881,10301 3842,10301 3804,10291 3770,10271 3737,10252 3709,10224 3690,10191 3670,10157 3660,10119 3660,10081 3660,10042 3670,10004 3690,9970 3709,9937 3737,9909 3770,9890 3804,9870 3842,9860 3881,9860 3919,9860 3957,9870 3991,9890 4024,9909 4052,9937 4071,9970 4091,10004 4101,10042 4101,10081 L 4101,10081 Z"/>
        <path fill="none" stroke="rgb(52,101,164)" d="M 4101,10081 C 4101,10119 4091,10157 4071,10191 4052,10224 4024,10252 3991,10271 3957,10291 3919,10301 3881,10301 3842,10301 3804,10291 3770,10271 3737,10252 3709,10224 3690,10191 3670,10157 3660,10119 3660,10081 3660,10042 3670,10004 3690,9970 3709,9937 3737,9909 3770,9890 3804,9870 3842,9860 3881,9860 3919,9860 3957,9870 3991,9890 4024,9909 4052,9937 4071,9970 4091,10004 4101,10042 4101,10081 Z"/>
       </g>
      </g>
      <g class="com.sun.star.drawing.CustomShape">
       <g id="id34">
        <rect class="BoundingBox" stroke="none" fill="none" x="4246" y="9859" width="443" height="444"/>
        <path fill="rgb(0,0,0)" stroke="none" d="M 4687,10081 C 4687,10119 4677,10157 4658,10191 4638,10224 4610,10252 4577,10271 4544,10291 4506,10301 4467,10301 4428,10301 4390,10291 4357,10271 4324,10252 4296,10224 4276,10191 4257,10157 4247,10119 4247,10081 4247,10042 4257,10004 4276,9970 4296,9937 4324,9909 4357,9890 4390,9870 4428,9860 4467,9860 4506,9860 4544,9870 4577,9890 4610,9909 4638,9937 4658,9970 4677,10004 4687,10042 4687,10081 L 4687,10081 Z"/>
        <path fill="none" stroke="rgb(52,101,164)" d="M 4687,10081 C 4687,10119 4677,10157 4658,10191 4638,10224 4610,10252 4577,10271 4544,10291 4506,10301 4467,10301 4428,10301 4390,10291 4357,10271 4324,10252 4296,10224 4276,10191 4257,10157 4247,10119 4247,10081 4247,10042 4257,10004 4276,9970 4296,9937 4324,9909 4357,9890 4390,9870 4428,9860 4467,9860 4506,9860 4544,9870 4577,9890 4610,9909 4638,9937 4658,9970 4677,10004 4687,10042 4687,10081 Z"/>
       </g>
      </g>
      <g class="com.sun.star.drawing.CustomShape">
       <g id="id35">
        <rect class="BoundingBox" stroke="none" fill="none" x="4832" y="9859" width="443" height="444"/>
        <path fill="rgb(0,0,0)" stroke="none" d="M 5273,10081 C 5273,10119 5263,10157 5244,10191 5224,10224 5196,10252 5163,10271 5130,10291 5092,10301 5053,10301 5014,10301 4976,10291 4943,10271 4910,10252 4882,10224 4862,10191 4843,10157 4833,10119 4833,10081 4833,10042 4843,10004 4862,9970 4882,9937 4910,9909 4943,9890 4976,9870 5014,9860 5053,9860 5092,9860 5130,9870 5163,9890 5196,9909 5224,9937 5244,9970 5263,10004 5273,10042 5273,10081 L 5273,10081 Z"/>
        <path fill="none" stroke="rgb(52,101,164)" d="M 5273,10081 C 5273,10119 5263,10157 5244,10191 5224,10224 5196,10252 5163,10271 5130,10291 5092,10301 5053,10301 5014,10301 4976,10291 4943,10271 4910,10252 4882,10224 4862,10191 4843,10157 4833,10119 4833,10081 4833,10042 4843,10004 4862,9970 4882,9937 4910,9909 4943,9890 4976,9870 5014,9860 5053,9860 5092,9860 5130,9870 5163,9890 5196,9909 5224,9937 5244,9970 5263,10004 5273,10042 5273,10081 Z"/>
       </g>
      </g>
      <g class="com.sun.star.drawing.CustomShape">
       <g id="id36">
        <rect class="BoundingBox" stroke="none" fill="none" x="6589" y="9376" width="1109" height="1108"/>
        <path fill="none" stroke="rgb(52,101,164)" stroke-width="81" stroke-linejoin="round" d="M 7143,10442 L 6630,10442 6630,9417 7656,9417 7656,10442 7143,10442 Z"/>
       </g>
      </g>
      <g class="com.sun.star.drawing.CustomShape">
       <g id="id37">
        <rect class="BoundingBox" stroke="none" fill="none" x="6589" y="10403" width="1109" height="1109"/>
        <path fill="none" stroke="rgb(52,101,164)" stroke-width="81" stroke-linejoin="round" d="M 7143,11470 L 6630,11470 6630,10444 7656,10444 7656,11470 7143,11470 Z"/>
       </g>
      </g>
      <g class="com.sun.star.drawing.CustomShape">
       <g id="id38">
        <rect class="BoundingBox" stroke="none" fill="none" x="5563" y="9376" width="1109" height="1108"/>
        <path fill="none" stroke="rgb(52,101,164)" stroke-width="81" stroke-linejoin="round" d="M 6117,10442 L 5604,10442 5604,9417 6630,9417 6630,10442 6117,10442 Z"/>
       </g>
      </g>
      <g class="com.sun.star.drawing.CustomShape">
       <g id="id39">
        <rect class="BoundingBox" stroke="none" fill="none" x="6589" y="9376" width="1109" height="1108"/>
        <path fill="none" stroke="rgb(52,101,164)" stroke-width="81" stroke-linejoin="round" d="M 7143,10442 L 6630,10442 6630,9417 7656,9417 7656,10442 7143,10442 Z"/>
       </g>
      </g>
      <g class="com.sun.star.drawing.CustomShape">
       <g id="id40">
        <rect class="BoundingBox" stroke="none" fill="none" x="7950" y="10444" width="444" height="444"/>
        <path fill="rgb(0,0,0)" stroke="none" d="M 8392,10666 C 8392,10704 8382,10742 8362,10776 8343,10809 8315,10837 8282,10856 8248,10876 8210,10886 8172,10886 8133,10886 8095,10876 8061,10856 8028,10837 8000,10809 7981,10776 7961,10742 7951,10704 7951,10666 7951,10627 7961,10589 7981,10555 8000,10522 8028,10494 8061,10475 8095,10455 8133,10445 8172,10445 8210,10445 8248,10455 8282,10475 8315,10494 8343,10522 8362,10555 8382,10589 8392,10627 8392,10666 L 8392,10666 Z"/>
        <path fill="none" stroke="rgb(52,101,164)" d="M 8392,10666 C 8392,10704 8382,10742 8362,10776 8343,10809 8315,10837 8282,10856 8248,10876 8210,10886 8172,10886 8133,10886 8095,10876 8061,10856 8028,10837 8000,10809 7981,10776 7961,10742 7951,10704 7951,10666 7951,10627 7961,10589 7981,10555 8000,10522 8028,10494 8061,10475 8095,10455 8133,10445 8172,10445 8210,10445 8248,10455 8282,10475 8315,10494 8343,10522 8362,10555 8382,10589 8392,10627 8392,10666 Z"/>
       </g>
      </g>
      <g class="com.sun.star.drawing.CustomShape">
       <g id="id41">
        <rect class="BoundingBox" stroke="none" fill="none" x="8537" y="10444" width="444" height="444"/>
        <path fill="rgb(0,0,0)" stroke="none" d="M 8979,10666 C 8979,10704 8969,10742 8949,10776 8930,10809 8902,10837 8869,10856 8835,10876 8797,10886 8759,10886 8720,10886 8682,10876 8648,10856 8615,10837 8587,10809 8568,10776 8548,10742 8538,10704 8538,10666 8538,10627 8548,10589 8568,10555 8587,10522 8615,10494 8648,10475 8682,10455 8720,10445 8759,10445 8797,10445 8835,10455 8869,10475 8902,10494 8930,10522 8949,10555 8969,10589 8979,10627 8979,10666 L 8979,10666 Z"/>
        <path fill="none" stroke="rgb(52,101,164)" d="M 8979,10666 C 8979,10704 8969,10742 8949,10776 8930,10809 8902,10837 8869,10856 8835,10876 8797,10886 8759,10886 8720,10886 8682,10876 8648,10856 8615,10837 8587,10809 8568,10776 8548,10742 8538,10704 8538,10666 8538,10627 8548,10589 8568,10555 8587,10522 8615,10494 8648,10475 8682,10455 8720,10445 8759,10445 8797,10445 8835,10455 8869,10475 8902,10494 8930,10522 8949,10555 8969,10589 8979,10627 8979,10666 Z"/>
       </g>
      </g>
      <g class="com.sun.star.drawing.CustomShape">
       <g id="id42">
        <rect class="BoundingBox" stroke="none" fill="none" x="9122" y="10444" width="443" height="444"/>
        <path fill="rgb(0,0,0)" stroke="none" d="M 9563,10666 C 9563,10704 9553,10742 9534,10776 9514,10809 9486,10837 9453,10856 9420,10876 9382,10886 9343,10886 9304,10886 9266,10876 9233,10856 9200,10837 9172,10809 9152,10776 9133,10742 9123,10704 9123,10666 9123,10627 9133,10589 9152,10555 9172,10522 9200,10494 9233,10475 9266,10455 9304,10445 9343,10445 9382,10445 9420,10455 9453,10475 9486,10494 9514,10522 9534,10555 9553,10589 9563,10627 9563,10666 L 9563,10666 Z"/>
        <path fill="none" stroke="rgb(52,101,164)" d="M 9563,10666 C 9563,10704 9553,10742 9534,10776 9514,10809 9486,10837 9453,10856 9420,10876 9382,10886 9343,10886 9304,10886 9266,10876 9233,10856 9200,10837 9172,10809 9152,10776 9133,10742 9123,10704 9123,10666 9123,10627 9133,10589 9152,10555 9172,10522 9200,10494 9233,10475 9266,10455 9304,10445 9343,10445 9382,10445 9420,10455 9453,10475 9486,10494 9514,10522 9534,10555 9553,10589 9563,10627 9563,10666 Z"/>
       </g>
      </g>
      <g class="com.sun.star.drawing.CustomShape">
       <g id="id43">
        <rect class="BoundingBox" stroke="none" fill="none" x="2193" y="12104" width="1109" height="1109"/>
        <path fill="none" stroke="rgb(52,101,164)" stroke-width="81" stroke-linejoin="round" d="M 2747,13171 L 2234,13171 2234,12145 3260,12145 3260,13171 2747,13171 Z"/>
       </g>
      </g>
      <g class="com.sun.star.drawing.CustomShape">
       <g id="id44">
        <rect class="BoundingBox" stroke="none" fill="none" x="2193" y="13131" width="1109" height="1109"/>
        <path fill="none" stroke="rgb(52,101,164)" stroke-width="81" stroke-linejoin="round" d="M 2747,14198 L 2234,14198 2234,13172 3260,13172 3260,14198 2747,14198 Z"/>
       </g>
      </g>
      <g class="com.sun.star.drawing.CustomShape">
       <g id="id45">
        <rect class="BoundingBox" stroke="none" fill="none" x="3219" y="12104" width="1109" height="1109"/>
        <path fill="none" stroke="rgb(52,101,164)" stroke-width="81" stroke-linejoin="round" d="M 3773,13171 L 3260,13171 3260,12145 4286,12145 4286,13171 3773,13171 Z"/>
       </g>
      </g>
      <g class="com.sun.star.drawing.CustomShape">
       <g id="id46">
        <rect class="BoundingBox" stroke="none" fill="none" x="2193" y="12104" width="1109" height="1109"/>
        <path fill="none" stroke="rgb(52,101,164)" stroke-width="81" stroke-linejoin="round" d="M 2747,13171 L 2234,13171 2234,12145 3260,12145 3260,13171 2747,13171 Z"/>
       </g>
      </g>
      <g class="com.sun.star.drawing.CustomShape">
       <g id="id47">
        <rect class="BoundingBox" stroke="none" fill="none" x="6170" y="12150" width="1110" height="1109"/>
        <path fill="none" stroke="rgb(52,101,164)" stroke-width="81" stroke-linejoin="round" d="M 6725,13217 L 6211,13217 6211,12191 7238,12191 7238,13217 6725,13217 Z"/>
       </g>
      </g>
      <g class="com.sun.star.drawing.CustomShape">
       <g id="id48">
        <rect class="BoundingBox" stroke="none" fill="none" x="6170" y="13175" width="1110" height="1110"/>
        <path fill="none" stroke="rgb(52,101,164)" stroke-width="81" stroke-linejoin="round" d="M 6725,14243 L 6211,14243 6211,13216 7238,13216 7238,14243 6725,14243 Z"/>
       </g>
      </g>
      <g class="com.sun.star.drawing.CustomShape">
       <g id="id49">
        <rect class="BoundingBox" stroke="none" fill="none" x="5144" y="12150" width="1109" height="1109"/>
        <path fill="none" stroke="rgb(52,101,164)" stroke-width="81" stroke-linejoin="round" d="M 5698,13217 L 5185,13217 5185,12191 6211,12191 6211,13217 5698,13217 Z"/>
       </g>
      </g>
      <g class="com.sun.star.drawing.CustomShape">
       <g id="id50">
        <rect class="BoundingBox" stroke="none" fill="none" x="6170" y="12150" width="1110" height="1109"/>
        <path fill="none" stroke="rgb(52,101,164)" stroke-width="81" stroke-linejoin="round" d="M 6725,13217 L 6211,13217 6211,12191 7238,12191 7238,13217 6725,13217 Z"/>
       </g>
      </g>
      <g class="com.sun.star.drawing.CustomShape">
       <g id="id51">
        <rect class="BoundingBox" stroke="none" fill="none" x="3897" y="13572" width="444" height="444"/>
        <path fill="rgb(0,0,0)" stroke="none" d="M 4339,13794 C 4339,13832 4329,13870 4309,13904 4290,13937 4262,13965 4229,13984 4195,14004 4157,14014 4119,14014 4080,14014 4042,14004 4008,13984 3975,13965 3947,13937 3928,13904 3908,13870 3898,13832 3898,13794 3898,13755 3908,13717 3928,13683 3947,13650 3975,13622 4008,13603 4042,13583 4080,13573 4119,13573 4157,13573 4195,13583 4229,13603 4262,13622 4290,13650 4309,13683 4329,13717 4339,13755 4339,13794 L 4339,13794 Z"/>
        <path fill="none" stroke="rgb(52,101,164)" d="M 4339,13794 C 4339,13832 4329,13870 4309,13904 4290,13937 4262,13965 4229,13984 4195,14004 4157,14014 4119,14014 4080,14014 4042,14004 4008,13984 3975,13965 3947,13937 3928,13904 3908,13870 3898,13832 3898,13794 3898,13755 3908,13717 3928,13683 3947,13650 3975,13622 4008,13603 4042,13583 4080,13573 4119,13573 4157,13573 4195,13583 4229,13603 4262,13622 4290,13650 4309,13683 4329,13717 4339,13755 4339,13794 Z"/>
       </g>
      </g>
      <g class="com.sun.star.drawing.CustomShape">
       <g id="id52">
        <rect class="BoundingBox" stroke="none" fill="none" x="4484" y="13572" width="443" height="444"/>
        <path fill="rgb(0,0,0)" stroke="none" d="M 4925,13794 C 4925,13832 4915,13870 4896,13904 4876,13937 4848,13965 4815,13984 4782,14004 4744,14014 4705,14014 4666,14014 4628,14004 4595,13984 4562,13965 4534,13937 4514,13904 4495,13870 4485,13832 4485,13794 4485,13755 4495,13717 4514,13683 4534,13650 4562,13622 4595,13603 4628,13583 4666,13573 4705,13573 4744,13573 4782,13583 4815,13603 4848,13622 4876,13650 4896,13683 4915,13717 4925,13755 4925,13794 L 4925,13794 Z"/>
        <path fill="none" stroke="rgb(52,101,164)" d="M 4925,13794 C 4925,13832 4915,13870 4896,13904 4876,13937 4848,13965 4815,13984 4782,14004 4744,14014 4705,14014 4666,14014 4628,14004 4595,13984 4562,13965 4534,13937 4514,13904 4495,13870 4485,13832 4485,13794 4485,13755 4495,13717 4514,13683 4534,13650 4562,13622 4595,13603 4628,13583 4666,13573 4705,13573 4744,13573 4782,13583 4815,13603 4848,13622 4876,13650 4896,13683 4915,13717 4925,13755 4925,13794 Z"/>
       </g>
      </g>
      <g class="com.sun.star.drawing.CustomShape">
       <g id="id53">
        <rect class="BoundingBox" stroke="none" fill="none" x="5069" y="13572" width="443" height="444"/>
        <path fill="rgb(0,0,0)" stroke="none" d="M 5510,13794 C 5510,13832 5500,13870 5481,13904 5461,13937 5433,13965 5400,13984 5367,14004 5329,14014 5290,14014 5251,14014 5213,14004 5180,13984 5147,13965 5119,13937 5099,13904 5080,13870 5070,13832 5070,13794 5070,13755 5080,13717 5099,13683 5119,13650 5147,13622 5180,13603 5213,13583 5251,13573 5290,13573 5329,13573 5367,13583 5400,13603 5433,13622 5461,13650 5481,13683 5500,13717 5510,13755 5510,13794 L 5510,13794 Z"/>
        <path fill="none" stroke="rgb(52,101,164)" d="M 5510,13794 C 5510,13832 5500,13870 5481,13904 5461,13937 5433,13965 5400,13984 5367,14004 5329,14014 5290,14014 5251,14014 5213,14004 5180,13984 5147,13965 5119,13937 5099,13904 5080,13870 5070,13832 5070,13794 5070,13755 5080,13717 5099,13683 5119,13650 5147,13622 5180,13603 5213,13583 5251,13573 5290,13573 5329,13573 5367,13583 5400,13603 5433,13622 5461,13650 5481,13683 5500,13717 5510,13755 5510,13794 Z"/>
       </g>
      </g>
      <g class="com.sun.star.drawing.CustomShape">
       <g id="id54">
        <rect class="BoundingBox" stroke="none" fill="none" x="7637" y="13063" width="443" height="443"/>
        <path fill="rgb(0,0,0)" stroke="none" d="M 8078,13284 C 8078,13323 8068,13361 8049,13394 8029,13427 8001,13455 7968,13475 7935,13494 7897,13504 7858,13504 7819,13504 7781,13494 7748,13475 7715,13455 7687,13427 7667,13394 7648,13361 7638,13323 7638,13284 7638,13245 7648,13207 7667,13174 7687,13141 7715,13113 7748,13093 7781,13074 7819,13064 7858,13064 7897,13064 7935,13074 7968,13093 8001,13113 8029,13141 8049,13174 8068,13207 8078,13245 8078,13284 L 8078,13284 Z"/>
        <path fill="none" stroke="rgb(52,101,164)" d="M 8078,13284 C 8078,13323 8068,13361 8049,13394 8029,13427 8001,13455 7968,13475 7935,13494 7897,13504 7858,13504 7819,13504 7781,13494 7748,13475 7715,13455 7687,13427 7667,13394 7648,13361 7638,13323 7638,13284 7638,13245 7648,13207 7667,13174 7687,13141 7715,13113 7748,13093 7781,13074 7819,13064 7858,13064 7897,13064 7935,13074 7968,13093 8001,13113 8029,13141 8049,13174 8068,13207 8078,13245 8078,13284 Z"/>
       </g>
      </g>
      <g class="com.sun.star.drawing.CustomShape">
       <g id="id55">
        <rect class="BoundingBox" stroke="none" fill="none" x="8224" y="13063" width="444" height="443"/>
        <path fill="rgb(0,0,0)" stroke="none" d="M 8666,13284 C 8666,13323 8656,13361 8636,13394 8617,13427 8589,13455 8556,13475 8522,13494 8484,13504 8446,13504 8407,13504 8369,13494 8335,13475 8302,13455 8274,13427 8255,13394 8235,13361 8225,13323 8225,13284 8225,13245 8235,13207 8255,13174 8274,13141 8302,13113 8335,13093 8369,13074 8407,13064 8446,13064 8484,13064 8522,13074 8556,13093 8589,13113 8617,13141 8636,13174 8656,13207 8666,13245 8666,13284 L 8666,13284 Z"/>
        <path fill="none" stroke="rgb(52,101,164)" d="M 8666,13284 C 8666,13323 8656,13361 8636,13394 8617,13427 8589,13455 8556,13475 8522,13494 8484,13504 8446,13504 8407,13504 8369,13494 8335,13475 8302,13455 8274,13427 8255,13394 8235,13361 8225,13323 8225,13284 8225,13245 8235,13207 8255,13174 8274,13141 8302,13113 8335,13093 8369,13074 8407,13064 8446,13064 8484,13064 8522,13074 8556,13093 8589,13113 8617,13141 8636,13174 8656,13207 8666,13245 8666,13284 Z"/>
       </g>
      </g>
      <g class="com.sun.star.drawing.CustomShape">
       <g id="id56">
        <rect class="BoundingBox" stroke="none" fill="none" x="8810" y="13063" width="444" height="443"/>
        <path fill="rgb(0,0,0)" stroke="none" d="M 9252,13284 C 9252,13323 9242,13361 9222,13394 9203,13427 9175,13455 9142,13475 9108,13494 9070,13504 9032,13504 8993,13504 8955,13494 8921,13475 8888,13455 8860,13427 8841,13394 8821,13361 8811,13323 8811,13284 8811,13245 8821,13207 8841,13174 8860,13141 8888,13113 8921,13093 8955,13074 8993,13064 9032,13064 9070,13064 9108,13074 9142,13093 9175,13113 9203,13141 9222,13174 9242,13207 9252,13245 9252,13284 L 9252,13284 Z"/>
        <path fill="none" stroke="rgb(52,101,164)" d="M 9252,13284 C 9252,13323 9242,13361 9222,13394 9203,13427 9175,13455 9142,13475 9108,13494 9070,13504 9032,13504 8993,13504 8955,13494 8921,13475 8888,13455 8860,13427 8841,13394 8821,13361 8811,13323 8811,13284 8811,13245 8821,13207 8841,13174 8860,13141 8888,13113 8921,13093 8955,13074 8993,13064 9032,13064 9070,13064 9108,13074 9142,13093 9175,13113 9203,13141 9222,13174 9242,13207 9252,13245 9252,13284 Z"/>
       </g>
      </g>
      <g class="com.sun.star.drawing.CustomShape">
       <g id="id57">
        <rect class="BoundingBox" stroke="none" fill="none" x="2230" y="15912" width="1109" height="1109"/>
        <path fill="none" stroke="rgb(52,101,164)" stroke-width="81" stroke-linejoin="round" d="M 2784,15953 L 3297,15953 3297,16979 2271,16979 2271,15953 2784,15953 Z"/>
       </g>
      </g>
      <g class="com.sun.star.drawing.CustomShape">
       <g id="id58">
        <rect class="BoundingBox" stroke="none" fill="none" x="2230" y="14886" width="1109" height="1108"/>
        <path fill="none" stroke="rgb(52,101,164)" stroke-width="81" stroke-linejoin="round" d="M 2784,14927 L 3297,14927 3297,15952 2271,15952 2271,14927 2784,14927 Z"/>
       </g>
      </g>
      <g class="com.sun.star.drawing.CustomShape">
       <g id="id59">
        <rect class="BoundingBox" stroke="none" fill="none" x="3256" y="15912" width="1109" height="1109"/>
        <path fill="none" stroke="rgb(52,101,164)" stroke-width="81" stroke-linejoin="round" d="M 3810,15953 L 4323,15953 4323,16979 3297,16979 3297,15953 3810,15953 Z"/>
       </g>
      </g>
      <g class="com.sun.star.drawing.CustomShape">
       <g id="id60">
        <rect class="BoundingBox" stroke="none" fill="none" x="2230" y="15912" width="1109" height="1109"/>
        <path fill="none" stroke="rgb(52,101,164)" stroke-width="81" stroke-linejoin="round" d="M 2784,15953 L 3297,15953 3297,16979 2271,16979 2271,15953 2784,15953 Z"/>
       </g>
      </g>
      <g class="com.sun.star.drawing.CustomShape">
       <g id="id61">
        <rect class="BoundingBox" stroke="none" fill="none" x="6208" y="15867" width="1109" height="1109"/>
        <path fill="none" stroke="rgb(52,101,164)" stroke-width="81" stroke-linejoin="round" d="M 6762,15908 L 7275,15908 7275,16934 6249,16934 6249,15908 6762,15908 Z"/>
       </g>
      </g>
      <g class="com.sun.star.drawing.CustomShape">
       <g id="id62">
        <rect class="BoundingBox" stroke="none" fill="none" x="6208" y="14840" width="1109" height="1109"/>
        <path fill="none" stroke="rgb(52,101,164)" stroke-width="81" stroke-linejoin="round" d="M 6762,14881 L 7275,14881 7275,15907 6249,15907 6249,14881 6762,14881 Z"/>
       </g>
      </g>
      <g class="com.sun.star.drawing.CustomShape">
       <g id="id63">
        <rect class="BoundingBox" stroke="none" fill="none" x="5181" y="15867" width="1110" height="1109"/>
        <path fill="none" stroke="rgb(52,101,164)" stroke-width="81" stroke-linejoin="round" d="M 5736,15908 L 6249,15908 6249,16934 5222,16934 5222,15908 5736,15908 Z"/>
       </g>
      </g>
      <g class="com.sun.star.drawing.CustomShape">
       <g id="id64">
        <rect class="BoundingBox" stroke="none" fill="none" x="6208" y="15867" width="1109" height="1109"/>
        <path fill="none" stroke="rgb(52,101,164)" stroke-width="81" stroke-linejoin="round" d="M 6762,15908 L 7275,15908 7275,16934 6249,16934 6249,15908 6762,15908 Z"/>
       </g>
      </g>
      <g class="com.sun.star.drawing.CustomShape">
       <g id="id65">
        <rect class="BoundingBox" stroke="none" fill="none" x="3934" y="15153" width="443" height="444"/>
        <path fill="rgb(0,0,0)" stroke="none" d="M 4375,15375 C 4375,15413 4365,15451 4346,15485 4326,15518 4298,15546 4265,15565 4232,15585 4194,15595 4155,15595 4116,15595 4078,15585 4045,15565 4012,15546 3984,15518 3964,15485 3945,15451 3935,15413 3935,15375 3935,15336 3945,15298 3964,15264 3984,15231 4012,15203 4045,15184 4078,15164 4116,15154 4155,15154 4194,15154 4232,15164 4265,15184 4298,15203 4326,15231 4346,15264 4365,15298 4375,15336 4375,15375 L 4375,15375 Z"/>
        <path fill="none" stroke="rgb(52,101,164)" d="M 4375,15375 C 4375,15413 4365,15451 4346,15485 4326,15518 4298,15546 4265,15565 4232,15585 4194,15595 4155,15595 4116,15595 4078,15585 4045,15565 4012,15546 3984,15518 3964,15485 3945,15451 3935,15413 3935,15375 3935,15336 3945,15298 3964,15264 3984,15231 4012,15203 4045,15184 4078,15164 4116,15154 4155,15154 4194,15154 4232,15164 4265,15184 4298,15203 4326,15231 4346,15264 4365,15298 4375,15336 4375,15375 Z"/>
       </g>
      </g>
      <g class="com.sun.star.drawing.CustomShape">
       <g id="id66">
        <rect class="BoundingBox" stroke="none" fill="none" x="4521" y="15153" width="443" height="444"/>
        <path fill="rgb(0,0,0)" stroke="none" d="M 4962,15375 C 4962,15413 4952,15451 4933,15485 4913,15518 4885,15546 4852,15565 4819,15585 4781,15595 4742,15595 4703,15595 4665,15585 4632,15565 4599,15546 4571,15518 4551,15485 4532,15451 4522,15413 4522,15375 4522,15336 4532,15298 4551,15264 4571,15231 4599,15203 4632,15184 4665,15164 4703,15154 4742,15154 4781,15154 4819,15164 4852,15184 4885,15203 4913,15231 4933,15264 4952,15298 4962,15336 4962,15375 L 4962,15375 Z"/>
        <path fill="none" stroke="rgb(52,101,164)" d="M 4962,15375 C 4962,15413 4952,15451 4933,15485 4913,15518 4885,15546 4852,15565 4819,15585 4781,15595 4742,15595 4703,15595 4665,15585 4632,15565 4599,15546 4571,15518 4551,15485 4532,15451 4522,15413 4522,15375 4522,15336 4532,15298 4551,15264 4571,15231 4599,15203 4632,15184 4665,15164 4703,15154 4742,15154 4781,15154 4819,15164 4852,15184 4885,15203 4913,15231 4933,15264 4952,15298 4962,15336 4962,15375 Z"/>
       </g>
      </g>
      <g class="com.sun.star.drawing.CustomShape">
       <g id="id67">
        <rect class="BoundingBox" stroke="none" fill="none" x="5107" y="15153" width="444" height="444"/>
        <path fill="rgb(0,0,0)" stroke="none" d="M 5549,15375 C 5549,15413 5539,15451 5519,15485 5500,15518 5472,15546 5439,15565 5405,15585 5367,15595 5329,15595 5290,15595 5252,15585 5218,15565 5185,15546 5157,15518 5138,15485 5118,15451 5108,15413 5108,15375 5108,15336 5118,15298 5138,15264 5157,15231 5185,15203 5218,15184 5252,15164 5290,15154 5329,15154 5367,15154 5405,15164 5439,15184 5472,15203 5500,15231 5519,15264 5539,15298 5549,15336 5549,15375 L 5549,15375 Z"/>
        <path fill="none" stroke="rgb(52,101,164)" d="M 5549,15375 C 5549,15413 5539,15451 5519,15485 5500,15518 5472,15546 5439,15565 5405,15585 5367,15595 5329,15595 5290,15595 5252,15585 5218,15565 5185,15546 5157,15518 5138,15485 5118,15451 5108,15413 5108,15375 5108,15336 5118,15298 5138,15264 5157,15231 5185,15203 5218,15184 5252,15164 5290,15154 5329,15154 5367,15154 5405,15164 5439,15184 5472,15203 5500,15231 5519,15264 5539,15298 5549,15336 5549,15375 Z"/>
       </g>
      </g>
      <g class="com.sun.star.drawing.CustomShape">
       <g id="id68">
        <rect class="BoundingBox" stroke="none" fill="none" x="7675" y="15800" width="444" height="444"/>
        <path fill="rgb(0,0,0)" stroke="none" d="M 8117,16022 C 8117,16060 8107,16098 8087,16132 8068,16165 8040,16193 8007,16212 7973,16232 7935,16242 7897,16242 7858,16242 7820,16232 7786,16212 7753,16193 7725,16165 7706,16132 7686,16098 7676,16060 7676,16022 7676,15983 7686,15945 7706,15911 7725,15878 7753,15850 7786,15831 7820,15811 7858,15801 7897,15801 7935,15801 7973,15811 8007,15831 8040,15850 8068,15878 8087,15911 8107,15945 8117,15983 8117,16022 L 8117,16022 Z"/>
        <path fill="none" stroke="rgb(52,101,164)" d="M 8117,16022 C 8117,16060 8107,16098 8087,16132 8068,16165 8040,16193 8007,16212 7973,16232 7935,16242 7897,16242 7858,16242 7820,16232 7786,16212 7753,16193 7725,16165 7706,16132 7686,16098 7676,16060 7676,16022 7676,15983 7686,15945 7706,15911 7725,15878 7753,15850 7786,15831 7820,15811 7858,15801 7897,15801 7935,15801 7973,15811 8007,15831 8040,15850 8068,15878 8087,15911 8107,15945 8117,15983 8117,16022 Z"/>
       </g>
      </g>
      <g class="com.sun.star.drawing.CustomShape">
       <g id="id69">
        <rect class="BoundingBox" stroke="none" fill="none" x="8261" y="15800" width="443" height="444"/>
        <path fill="rgb(0,0,0)" stroke="none" d="M 8702,16022 C 8702,16060 8692,16098 8673,16132 8653,16165 8625,16193 8592,16212 8559,16232 8521,16242 8482,16242 8443,16242 8405,16232 8372,16212 8339,16193 8311,16165 8291,16132 8272,16098 8262,16060 8262,16022 8262,15983 8272,15945 8291,15911 8311,15878 8339,15850 8372,15831 8405,15811 8443,15801 8482,15801 8521,15801 8559,15811 8592,15831 8625,15850 8653,15878 8673,15911 8692,15945 8702,15983 8702,16022 L 8702,16022 Z"/>
        <path fill="none" stroke="rgb(52,101,164)" d="M 8702,16022 C 8702,16060 8692,16098 8673,16132 8653,16165 8625,16193 8592,16212 8559,16232 8521,16242 8482,16242 8443,16242 8405,16232 8372,16212 8339,16193 8311,16165 8291,16132 8272,16098 8262,16060 8262,16022 8262,15983 8272,15945 8291,15911 8311,15878 8339,15850 8372,15831 8405,15811 8443,15801 8482,15801 8521,15801 8559,15811 8592,15831 8625,15850 8653,15878 8673,15911 8692,15945 8702,15983 8702,16022 Z"/>
       </g>
      </g>
      <g class="com.sun.star.drawing.CustomShape">
       <g id="id70">
        <rect class="BoundingBox" stroke="none" fill="none" x="8847" y="15800" width="443" height="444"/>
        <path fill="rgb(0,0,0)" stroke="none" d="M 9288,16022 C 9288,16060 9278,16098 9259,16132 9239,16165 9211,16193 9178,16212 9145,16232 9107,16242 9068,16242 9029,16242 8991,16232 8958,16212 8925,16193 8897,16165 8877,16132 8858,16098 8848,16060 8848,16022 8848,15983 8858,15945 8877,15911 8897,15878 8925,15850 8958,15831 8991,15811 9029,15801 9068,15801 9107,15801 9145,15811 9178,15831 9211,15850 9239,15878 9259,15911 9278,15945 9288,15983 9288,16022 L 9288,16022 Z"/>
        <path fill="none" stroke="rgb(52,101,164)" d="M 9288,16022 C 9288,16060 9278,16098 9259,16132 9239,16165 9211,16193 9178,16212 9145,16232 9107,16242 9068,16242 9029,16242 8991,16232 8958,16212 8925,16193 8897,16165 8877,16132 8858,16098 8848,16060 8848,16022 8848,15983 8858,15945 8877,15911 8897,15878 8925,15850 8958,15831 8991,15811 9029,15801 9068,15801 9107,15801 9145,15811 9178,15831 9211,15850 9239,15878 9259,15911 9278,15945 9288,15983 9288,16022 Z"/>
       </g>
      </g>
     </g>
    </g>
   </g>
  </g>
 </g>
</svg>